<?xml version="1.0" encoding="UTF-8" standalone="no"?>
<!DOCTYPE svg PUBLIC "-//W3C//DTD SVG 1.1//EN" "http://www.w3.org/Graphics/SVG/1.1/DTD/svg11.dtd">
<svg width="1382.40" height="777.60" viewBox="0.00 0.00 3840.00 2160.00" xmlns="http://www.w3.org/2000/svg" xmlns:xlink="http://www.w3.org/1999/xlink">
<g stroke-linecap="round" id="Layer8">
<path d="M1275.13,1127.85 C1273.73,1128.00 1272.84,1128.12 1272.46,1128.23 C1269.17,1129.12 1235.37,1152.29 1222.45,1161.25 C1218.45,1163.95 1202.87,1172.70 1200.69,1173.10 C1203.34,1168.67 1210.19,1161.56 1217.76,1154.79 C1260.88,1116.81 1269.29,1110.07 1274.68,1106.10 C1269.64,1112.08 1261.72,1119.64 1256.70,1124.38 C1250.37,1130.20 1237.77,1141.54 1231.50,1147.06 C1216.29,1159.92 1206.72,1165.89 1201.72,1168.38 C1206.40,1160.51 1211.11,1154.93 1218.13,1147.23 C1223.89,1141.14 1235.21,1129.71 1240.79,1124.15 C1245.93,1119.20 1259.25,1106.48 1261.52,1105.89 C1261.75,1105.84 1262.13,1105.92 1262.66,1106.14 C1260.05,1110.49 1253.55,1117.06 1245.72,1124.05 C1239.71,1129.30 1226.56,1140.23 1220.18,1145.29 C1213.68,1150.29 1203.23,1157.99 1197.07,1160.93 C1199.52,1156.47 1202.32,1152.79 1206.03,1149.33 C1209.97,1145.66 1223.80,1133.62 1229.76,1128.49 C1238.98,1120.72 1242.85,1118.17 1246.04,1116.39 C1243.31,1120.86 1234.98,1130.18 1226.54,1138.06 C1207.23,1155.53 1200.45,1160.65 1198.78,1161.89 C1205.23,1155.88 1253.49,1116.90 1257.10,1114.55 C1261.02,1112.01 1267.34,1109.58 1268.45,1109.15 C1267.07,1113.17 1265.23,1116.51 1262.11,1119.98 C1255.45,1127.11 1236.48,1140.54 1230.54,1143.60 C1229.23,1144.27 1228.46,1144.37 1227.67,1144.15 C1232.17,1137.84 1239.57,1130.88 1248.43,1123.50 C1254.63,1118.53 1267.70,1108.18 1270.78,1105.99 C1276.03,1102.13 1285.57,1095.19 1290.46,1093.08 C1289.45,1095.68 1285.87,1100.16 1283.69,1102.35 C1274.75,1111.31 1254.93,1124.77 1254.39,1124.49 C1258.84,1118.44 1266.85,1111.23 1271.03,1108.54 C1262.62,1118.72 1253.85,1123.22 1252.82,1123.69 C1252.63,1123.11 1253.41,1121.84 1254.98,1120.42 C1255.34,1120.10 1255.93,1119.64 1256.75,1119.04" fill="none" stroke="rgb(255, 176, 55)" stroke-width="17.00" stroke-opacity="1.00" stroke-linejoin="round"/>
<path d="M1222.35,1137.30 C1222.35,1137.30 1230.15,1131.89 1230.15,1131.89 C1230.15,1131.89 1214.16,1145.00 1214.16,1145.00 C1214.16,1145.00 1222.61,1138.96 1222.61,1138.96 C1222.61,1138.96 1213.93,1147.71 1213.93,1147.71 C1213.93,1147.71 1232.86,1134.00 1232.86,1134.00 C1232.73,1134.15 1209.63,1150.08 1201.73,1156.20 C1197.77,1159.37 1189.68,1169.41 1187.64,1171.95 C1190.28,1167.92 1199.45,1156.57 1203.08,1152.70 C1209.77,1145.77 1216.59,1139.27 1223.67,1134.39 C1226.89,1132.19 1232.15,1129.17 1234.50,1128.52 C1233.10,1130.49 1217.50,1141.45 1214.69,1143.65 C1212.54,1145.35 1208.47,1149.04 1204.79,1152.64 C1199.46,1157.97 1194.70,1165.75 1192.95,1168.64 C1196.72,1163.48 1209.15,1152.04 1211.93,1149.10 C1213.03,1147.92 1224.67,1135.01 1230.19,1130.53 C1233.20,1128.10 1246.12,1118.36 1252.44,1114.36 C1261.92,1108.52 1272.75,1102.77 1274.27,1101.61 C1275.14,1100.95 1283.48,1093.86 1283.92,1093.51 C1287.59,1090.68 1287.65,1090.45 1287.67,1089.90 C1282.21,1090.79 1250.41,1109.77 1238.24,1116.84 C1234.91,1118.68 1221.33,1128.56 1217.14,1132.16 C1211.96,1136.64 1204.80,1144.45 1198.16,1152.64 C1195.88,1155.48 1191.99,1160.66 1190.61,1163.22 C1191.34,1163.14 1202.86,1152.97 1207.51,1149.11 C1222.95,1136.78 1231.56,1131.28 1254.82,1114.45 C1257.05,1112.85 1261.34,1110.30 1264.10,1108.32 C1269.49,1104.45 1273.16,1102.18 1274.89,1101.57" fill="none" stroke="rgb(255, 176, 55)" stroke-width="17.00" stroke-opacity="1.00" stroke-linejoin="round"/>
<path d="M1275.93,1093.85 C1275.14,1094.28 1274.59,1094.59 1274.29,1094.77 C1273.60,1095.18 1273.26,1095.38 1273.25,1095.37 C1273.13,1094.74 1277.61,1091.56 1283.08,1088.26 C1286.07,1086.43 1294.98,1077.30 1298.30,1074.60 C1303.20,1070.64 1315.16,1062.12 1316.56,1062.15 C1317.20,1062.19 1321.65,1064.70 1324.72,1066.20 C1325.77,1066.69 1326.71,1066.82 1327.27,1066.53 C1327.63,1066.32 1333.77,1061.46 1336.63,1059.94 C1337.25,1059.63 1338.38,1059.83 1340.37,1061.29 C1344.85,1064.61 1355.43,1070.54 1359.47,1073.57 C1363.26,1076.44 1369.86,1082.95 1379.37,1091.56 C1383.95,1095.72 1407.66,1114.99 1420.18,1124.52 C1426.70,1129.58 1439.99,1138.08 1443.72,1140.05 C1450.43,1143.56 1461.39,1147.83 1467.59,1150.31 C1474.54,1152.92 1480.49,1155.67 1483.11,1156.90 C1484.33,1157.48 1485.20,1157.98 1486.37,1158.74" fill="none" stroke="rgb(255, 176, 55)" stroke-width="17.00" stroke-opacity="1.00" stroke-linejoin="round"/>
<path d="M1484.31,1159.75 C1484.31,1159.75 1483.61,1158.69 1483.61,1158.69 C1485.40,1159.12 1486.54,1159.40 1487.04,1159.55 C1489.86,1160.38 1498.38,1164.31 1499.25,1164.60 C1499.53,1164.45 1501.60,1162.82 1503.45,1161.95 C1512.41,1157.76 1519.92,1154.62 1523.06,1152.54 C1526.26,1150.33 1529.31,1148.62 1531.54,1148.19 C1532.93,1147.97 1537.24,1150.20 1540.79,1152.51 C1552.14,1159.55 1573.35,1172.94 1585.99,1179.10 C1626.58,1199.01 1645.40,1207.76 1645.50,1207.70 C1646.02,1207.37 1653.68,1204.70 1656.54,1204.12 C1658.61,1203.72 1660.48,1203.73 1661.30,1204.14 C1666.24,1207.11 1675.08,1212.21 1681.06,1214.80 C1687.62,1217.65 1698.25,1222.28 1703.62,1224.10 C1723.47,1230.50 1727.62,1232.51 1728.31,1232.56" fill="none" stroke="rgb(255, 176, 55)" stroke-width="17.00" stroke-opacity="1.00" stroke-linejoin="round"/>
<path d="M1724.76,1232.02 C1725.22,1230.70 1725.61,1229.85 1725.91,1229.46 C1726.56,1228.65 1738.52,1222.29 1745.62,1217.29 C1764.32,1203.85 1772.79,1199.09 1791.48,1188.21 C1794.57,1186.50 1800.23,1183.36 1802.20,1182.41 C1804.22,1181.45 1810.08,1180.56 1813.28,1180.86 C1814.51,1180.99 1821.73,1182.15 1824.82,1182.51 C1827.59,1182.79 1832.45,1181.75 1835.85,1179.97 C1842.92,1176.30 1856.85,1169.13 1860.37,1166.88 C1883.32,1152.30 1921.65,1127.76 1927.67,1123.91 C1933.75,1119.96 1943.54,1115.66 1949.83,1112.92 C1976.57,1101.68 1981.75,1099.66 1982.77,1100.15 C1983.59,1100.59 2016.19,1126.93 2027.08,1136.14 C2030.61,1138.94 2045.31,1149.84 2051.90,1154.66 C2056.46,1157.92 2058.74,1159.14 2062.57,1159.44 C2064.29,1159.56 2083.37,1158.78 2090.35,1158.97 C2092.22,1159.05 2095.70,1160.78 2099.73,1164.08 C2105.07,1168.57 2119.33,1180.28 2122.46,1183.26 C2126.44,1187.34 2132.00,1192.90 2139.66,1199.13 C2152.21,1209.25 2185.08,1236.21 2187.11,1238.99 C2187.49,1239.54 2187.30,1240.86 2186.83,1241.24 C2184.73,1242.82 2170.49,1246.73 2162.85,1248.41 C2147.47,1251.63 2116.56,1258.25 2106.45,1259.91 C2079.66,1264.71 2071.16,1265.79 2047.15,1270.55 C2032.90,1273.52 2003.23,1279.47 1991.18,1282.18 C1978.70,1285.34 1942.72,1294.05 1939.64,1294.53 C1931.97,1295.82 1915.09,1298.63 1910.13,1298.69 C1909.99,1298.69 1899.26,1300.91 1887.84,1303.88 C1877.69,1306.49 1871.08,1307.19 1863.26,1307.04 C1851.11,1306.80 1821.37,1307.20 1807.16,1305.52 C1781.60,1302.49 1722.47,1300.43 1689.02,1299.82 C1687.27,1299.80 1616.49,1300.72 1603.47,1300.44 C1590.88,1300.28 1587.97,1300.11 1584.55,1299.20 C1582.66,1298.66 1581.34,1297.75 1579.96,1296.08 C1577.52,1292.95 1572.94,1287.77 1570.44,1285.62 C1564.41,1280.49 1553.76,1276.39 1547.40,1272.61 C1543.04,1270.02 1527.88,1263.14 1524.70,1262.14" fill="none" stroke="rgb(255, 176, 55)" stroke-width="17.00" stroke-opacity="1.00" stroke-linejoin="round"/>
<path d="M1628.26,1305.45 C1627.50,1305.48 1625.33,1305.58 1624.06,1305.61 C1618.14,1305.72 1606.04,1304.71 1599.73,1304.15 C1591.87,1303.56 1582.33,1303.45 1571.17,1304.01 C1555.78,1305.10 1510.34,1309.09 1480.30,1312.00 C1466.07,1313.00 1435.60,1314.85 1423.99,1315.00 C1388.88,1315.73 1361.05,1319.30 1355.92,1319.14 C1352.87,1319.03 1349.71,1318.12 1345.22,1316.11 C1344.52,1315.80 1335.32,1312.46 1332.25,1310.98 C1329.99,1309.88 1309.44,1299.00 1305.66,1296.74 C1299.08,1292.78 1285.39,1283.10 1280.04,1279.43 C1277.88,1278.00 1241.22,1255.48 1230.85,1248.42 C1225.38,1244.61 1213.30,1236.24 1207.62,1232.77 C1201.45,1229.15 1186.21,1220.36 1183.52,1218.51 C1182.44,1217.76 1169.47,1207.38 1167.62,1205.61 C1167.75,1204.65 1168.26,1203.72 1169.32,1202.89 C1169.82,1202.50 1176.07,1198.20 1178.11,1196.24 C1183.77,1190.71 1191.83,1179.56 1195.96,1173.75 C1202.85,1164.53 1204.86,1162.10 1213.73,1152.86 C1217.94,1148.66 1222.24,1144.12 1233.31,1133.34 C1235.11,1131.63 1268.49,1102.61 1276.81,1097.62 C1279.40,1096.09 1309.10,1085.15 1310.54,1084.24 C1312.48,1082.96 1316.22,1076.76 1316.24,1076.75 C1317.50,1075.98 1320.70,1075.52 1323.15,1075.62 C1331.88,1076.02 1345.91,1078.73 1350.96,1081.08 C1354.90,1082.96 1365.16,1091.40 1371.06,1096.27 C1380.95,1104.39 1385.54,1107.92 1395.35,1114.94 C1400.20,1118.37 1413.16,1125.68 1418.63,1129.22 C1435.01,1140.16 1456.30,1153.29 1467.06,1158.20 C1471.94,1160.41 1485.93,1165.52 1491.45,1166.73 C1496.40,1167.81 1500.69,1168.58 1503.06,1168.71 C1506.03,1168.85 1510.46,1168.24 1514.32,1167.18 C1519.35,1165.76 1523.40,1164.79 1525.33,1165.00 C1526.38,1165.12 1529.62,1165.74 1530.87,1166.00" fill="none" stroke="rgb(255, 176, 55)" stroke-width="17.00" stroke-opacity="1.00" stroke-linejoin="round"/>
<path d="M1313.27,1196.68 C1315.22,1196.31 1320.97,1195.14 1321.94,1195.19 C1323.08,1195.28 1323.91,1195.75 1324.41,1196.62 C1325.02,1197.88 1321.93,1203.45 1318.39,1208.62 C1317.11,1210.48 1315.61,1211.97 1314.42,1212.59 C1314.09,1212.74 1309.60,1212.85 1309.49,1212.84 C1307.84,1212.64 1305.68,1210.96 1305.05,1209.51 C1304.36,1207.74 1304.92,1202.16 1306.51,1199.30 C1308.00,1196.70 1312.87,1191.50 1314.99,1190.06 C1316.59,1189.01 1321.33,1188.18 1323.74,1188.19 C1326.60,1188.23 1331.29,1189.79 1332.74,1191.07 C1333.77,1192.04 1334.96,1194.63 1335.30,1196.70 C1335.81,1200.12 1334.86,1205.68 1334.07,1208.15 C1332.41,1213.16 1328.67,1219.90 1326.88,1221.27 C1325.83,1222.04 1323.45,1222.89 1322.12,1222.96 C1320.72,1223.00 1317.80,1222.32 1316.60,1221.65 C1315.41,1220.94 1313.28,1218.71 1312.50,1217.41 C1311.11,1214.97 1310.93,1208.85 1311.70,1205.40 C1312.50,1202.05 1316.09,1196.01 1318.20,1193.92 C1319.42,1192.75 1322.44,1190.91 1323.95,1190.39 C1325.44,1189.93 1328.51,1189.82 1330.15,1190.18 C1333.67,1191.02 1339.39,1194.56 1342.21,1197.33 C1345.20,1200.32 1348.49,1204.27 1350.21,1207.10 C1351.99,1210.08 1354.73,1216.68 1355.47,1219.45 C1355.90,1221.12 1356.87,1226.47 1356.68,1228.91 C1356.54,1230.59 1354.10,1231.81 1354.04,1231.71 C1357.36,1228.28 1360.84,1225.01 1363.17,1223.37 C1365.38,1221.85 1369.77,1219.85 1373.01,1218.81 C1376.81,1217.63 1382.71,1216.85 1385.50,1217.06 C1388.48,1217.33 1393.06,1219.56 1394.59,1221.35 C1396.17,1223.27 1397.48,1228.28 1396.73,1231.71 C1395.95,1235.06 1392.28,1240.32 1390.36,1241.87 C1388.73,1243.12 1381.44,1245.60 1378.22,1246.12 C1374.40,1246.69 1367.18,1246.00 1363.95,1244.76 C1359.07,1242.83 1345.61,1233.11 1342.74,1229.65 C1341.38,1227.97 1339.00,1222.31 1338.83,1220.84 C1338.74,1219.63 1339.39,1217.80 1340.25,1217.21 C1342.73,1215.61 1347.18,1215.52 1350.14,1216.48 C1350.84,1216.73 1353.51,1217.82 1354.06,1218.30 C1355.43,1219.54 1357.12,1221.97 1357.60,1223.36 C1358.44,1225.97 1358.42,1229.47 1357.59,1231.98 C1357.13,1233.27 1355.23,1235.81 1353.93,1236.74 C1352.66,1237.61 1346.08,1237.79 1343.60,1236.47 C1342.77,1235.99 1340.82,1234.01 1340.49,1233.25 C1339.79,1231.48 1340.86,1225.53 1342.52,1222.93 C1344.21,1220.36 1348.40,1217.16 1350.96,1216.27 C1353.58,1215.40 1359.18,1214.83 1363.30,1215.06 C1366.73,1215.28 1413.97,1224.52 1421.56,1225.33 C1449.71,1228.20 1513.72,1234.03 1530.88,1236.09 C1540.58,1237.12 1554.72,1238.03 1557.44,1238.45 C1559.74,1238.80 1562.61,1238.65 1564.16,1238.54" fill="none" stroke="rgb(255, 176, 55)" stroke-width="150.00" stroke-opacity="1.00" stroke-linejoin="round"/>
<path d="M1977.62,1210.50 C1974.34,1211.60 1966.08,1214.32 1962.77,1215.22 C1950.42,1218.04 1932.53,1222.18 1926.98,1223.50 C1923.81,1224.25 1919.37,1226.08 1913.92,1228.84 C1909.83,1230.90 1905.64,1232.12 1900.91,1233.01 C1895.01,1233.96 1887.51,1235.17 1886.74,1235.24 C1886.20,1235.28 1884.91,1235.37 1882.87,1235.49" fill="none" stroke="rgb(255, 176, 55)" stroke-width="150.00" stroke-opacity="1.00" stroke-linejoin="round"/>
<path d="M1500.21,1228.42 C1500.99,1228.44 1503.29,1228.50 1504.33,1228.59 C1511.30,1229.18 1522.99,1232.69 1529.52,1234.69 C1535.73,1236.41 1548.40,1240.05 1554.87,1241.97 C1563.88,1244.64 1573.76,1246.37 1581.75,1246.60 C1588.00,1246.59 1598.65,1246.64 1611.15,1247.67 C1617.32,1248.26 1621.47,1248.85 1624.04,1249.77 C1629.87,1251.89 1644.42,1255.14 1652.36,1256.86 C1664.58,1259.34 1699.27,1263.37 1706.69,1263.68 C1720.87,1264.70 1751.46,1266.66 1764.06,1265.70 C1773.37,1265.03 1805.93,1265.63 1819.51,1266.08 C1839.78,1265.94 1866.05,1264.66 1869.07,1264.63 C1865.77,1266.56 1857.86,1268.40 1855.32,1268.83 C1848.08,1270.05 1838.79,1270.62 1827.51,1270.71 C1799.47,1270.96 1776.68,1272.26 1768.38,1271.84 C1764.92,1271.66 1731.65,1269.88 1717.05,1270.21 C1687.43,1271.73 1616.64,1275.41 1599.78,1276.86 C1585.19,1278.21 1544.44,1281.49 1541.13,1281.90 C1540.79,1281.94 1540.20,1282.03 1539.36,1282.17" fill="none" stroke="rgb(255, 176, 55)" stroke-width="80.00" stroke-opacity="1.00" stroke-linejoin="round"/>
<path d="M1592.05,1273.35 C1592.93,1273.61 1594.85,1274.05 1596.70,1274.39 C1598.26,1274.68 1610.66,1276.57 1610.97,1276.63 C1612.86,1277.04 1623.72,1280.90 1625.16,1281.53 C1625.99,1281.90 1643.96,1293.53 1646.50,1295.32 C1650.21,1297.94 1664.73,1309.79 1670.01,1312.73 C1676.01,1316.00 1688.44,1322.71 1693.39,1325.21 C1699.41,1328.18 1742.14,1343.75 1749.18,1345.47 C1764.69,1349.04 1807.59,1357.65 1808.52,1357.77 C1808.52,1357.77 1809.36,1356.85 1809.36,1356.85 C1805.93,1358.88 1793.17,1362.77 1785.21,1364.17 C1778.58,1365.20 1764.57,1367.29 1757.64,1368.40 C1750.68,1369.50 1736.53,1370.65 1731.55,1369.84 C1725.64,1368.86 1716.51,1365.62 1706.40,1361.60 C1699.48,1358.70 1685.46,1352.43 1679.67,1349.31 C1667.48,1342.37 1651.18,1333.14 1647.06,1330.85 C1659.90,1337.52 1689.11,1353.08 1696.05,1356.54 C1706.50,1361.67 1716.80,1367.39 1718.30,1368.95 C1717.51,1370.10 1712.32,1371.19 1709.34,1371.12 C1702.96,1370.93 1685.80,1367.22 1681.98,1366.14 C1679.71,1365.50 1664.26,1360.66 1663.79,1360.88 C1665.22,1362.32 1678.95,1365.96 1686.01,1366.74 C1692.76,1367.46 1704.09,1367.38 1711.97,1365.99 C1729.50,1362.72 1753.82,1359.24 1769.73,1357.12 C1777.65,1356.28 1790.01,1354.92 1796.79,1353.57 C1802.15,1352.44 1809.78,1350.19 1811.77,1349.73 C1811.94,1349.69 1817.05,1345.70 1819.51,1344.46 C1821.20,1343.64 1824.77,1342.37 1826.12,1341.90 C1824.74,1343.89 1821.27,1345.52 1818.10,1346.72 C1798.70,1353.69 1791.72,1355.78 1790.76,1356.04 C1813.35,1351.02 1823.18,1349.17 1847.25,1346.56 C1856.18,1345.74 1867.02,1345.29 1873.30,1345.07 C1888.88,1344.94 1910.88,1347.04 1913.12,1347.34" fill="none" stroke="rgb(255, 176, 55)" stroke-width="80.00" stroke-opacity="1.00" stroke-linejoin="round"/>
<path d="M1953.78,1359.56 C1953.78,1359.56 1968.31,1361.86 1968.31,1361.86" fill="none" stroke="rgb(255, 176, 55)" stroke-width="80.00" stroke-opacity="1.00" stroke-linejoin="round"/>
<path d="M1994.88,1366.09 C1994.88,1366.09 1998.24,1366.62 1998.24,1366.62" fill="none" stroke="rgb(255, 176, 55)" stroke-width="80.00" stroke-opacity="1.00" stroke-linejoin="round"/>
<path d="M1935.28,1344.87 C1935.28,1344.87 1936.83,1343.54 1936.83,1343.54" fill="none" stroke="rgb(255, 176, 55)" stroke-width="80.00" stroke-opacity="1.00" stroke-linejoin="round"/>
<path d="M1948.32,1348.43 C1948.32,1348.43 1997.60,1355.41 1997.60,1355.41" fill="none" stroke="rgb(255, 176, 55)" stroke-width="80.00" stroke-opacity="1.00" stroke-linejoin="round"/>
<path d="M1993.22,1360.68 C1993.22,1360.68 2003.57,1363.51 2003.57,1363.51" fill="none" stroke="rgb(255, 176, 55)" stroke-width="80.00" stroke-opacity="1.00" stroke-linejoin="round"/>
<path d="M1961.26,1362.31 C1961.26,1362.31 1925.66,1361.38 1925.66,1361.38" fill="none" stroke="rgb(255, 176, 55)" stroke-width="80.00" stroke-opacity="1.00" stroke-linejoin="round"/>
<path d="M1984.27,1404.70 C1984.27,1404.70 1973.59,1402.58 1973.59,1402.58" fill="none" stroke="rgb(255, 176, 55)" stroke-width="80.00" stroke-opacity="1.00" stroke-linejoin="round"/>
<path d="M1975.11,1386.21 C1975.11,1386.21 1961.44,1358.63 1961.44,1358.63" fill="none" stroke="rgb(255, 176, 55)" stroke-width="80.00" stroke-opacity="1.00" stroke-linejoin="round"/>
<path d="M1958.04,1332.92 C1958.04,1332.92 1956.27,1319.49 1956.27,1319.49" fill="none" stroke="rgb(255, 176, 55)" stroke-width="80.00" stroke-opacity="1.00" stroke-linejoin="round"/>
<path d="M1953.49,1358.42 C1953.49,1358.42 1947.98,1348.77 1947.98,1348.77" fill="none" stroke="rgb(255, 176, 55)" stroke-width="80.00" stroke-opacity="1.00" stroke-linejoin="round"/>
<path d="M1949.38,1389.31 C1949.38,1389.31 1943.32,1375.91 1943.32,1375.91 C1943.32,1375.91 1955.96,1398.51 1955.96,1398.51" fill="none" stroke="rgb(255, 176, 55)" stroke-width="80.00" stroke-opacity="1.00" stroke-linejoin="round"/>
<path d="M1983.85,1381.18 C1983.85,1381.18 2034.58,1387.68 2034.58,1387.68" fill="none" stroke="rgb(255, 176, 55)" stroke-width="80.00" stroke-opacity="1.00" stroke-linejoin="round"/>
<path d="M1949.84,1362.31 C1949.84,1362.31 1962.38,1369.68 1962.38,1369.68" fill="none" stroke="rgb(255, 176, 55)" stroke-width="80.00" stroke-opacity="1.00" stroke-linejoin="round"/>
<path d="M1976.29,1377.86 C1976.29,1377.86 1979.95,1380.02 1979.95,1380.02" fill="none" stroke="rgb(255, 176, 55)" stroke-width="80.00" stroke-opacity="1.00" stroke-linejoin="round"/>
<path d="M1994.00,1357.08 C1994.00,1357.08 2021.64,1336.81 2021.64,1336.81" fill="none" stroke="rgb(255, 176, 55)" stroke-width="80.00" stroke-opacity="1.00" stroke-linejoin="round"/>
<path d="M1993.81,1357.03 C1993.81,1357.03 1979.89,1341.13 1979.89,1341.13" fill="none" stroke="rgb(255, 176, 55)" stroke-width="80.00" stroke-opacity="1.00" stroke-linejoin="round"/>
<path d="M1967.31,1337.63 C1967.31,1337.63 1962.24,1333.92 1962.24,1333.92" fill="none" stroke="rgb(255, 176, 55)" stroke-width="80.00" stroke-opacity="1.00" stroke-linejoin="round"/>
<path d="M1983.43,1357.86 C1983.43,1357.86 1970.83,1348.96 1970.83,1348.96" fill="none" stroke="rgb(255, 176, 55)" stroke-width="80.00" stroke-opacity="1.00" stroke-linejoin="round"/>
<path d="M1958.87,1354.87 C1958.87,1354.87 1934.20,1349.51 1934.20,1349.51" fill="none" stroke="rgb(255, 176, 55)" stroke-width="80.00" stroke-opacity="1.00" stroke-linejoin="round"/>
<path d="M1996.95,1376.38 C1996.95,1376.38 1994.14,1374.22 1994.14,1374.22" fill="none" stroke="rgb(255, 176, 55)" stroke-width="80.00" stroke-opacity="1.00" stroke-linejoin="round"/>
<path d="M1958.67,1382.08 C1958.67,1382.08 1948.60,1388.07 1948.60,1388.07" fill="none" stroke="rgb(255, 176, 55)" stroke-width="80.00" stroke-opacity="1.00" stroke-linejoin="round"/>
<path d="M1925.97,1363.33 C1925.97,1363.33 1904.11,1359.31 1904.11,1359.31" fill="none" stroke="rgb(255, 176, 55)" stroke-width="80.00" stroke-opacity="1.00" stroke-linejoin="round"/>
<path d="M1794.01,1359.50 C1780.43,1357.84 1752.51,1354.17 1738.18,1352.17 C1729.43,1350.81 1719.14,1348.51 1712.56,1346.99 C1699.97,1343.77 1667.84,1333.11 1657.84,1329.14 C1647.19,1324.65 1616.50,1309.33 1610.10,1307.20 C1605.39,1305.65 1591.04,1302.54 1588.31,1302.12 C1585.23,1301.66 1568.15,1299.69 1560.57,1299.62 C1544.70,1299.70 1517.58,1297.72 1503.27,1296.78 C1496.75,1296.20 1483.97,1294.91 1477.31,1295.00 C1463.27,1295.40 1430.14,1295.89 1419.07,1295.49 C1404.62,1294.61 1383.10,1293.79 1367.23,1291.40 C1363.49,1290.84 1352.52,1287.87 1343.32,1285.92 C1333.87,1284.05 1324.39,1280.59 1318.17,1278.27 C1308.21,1274.88 1301.65,1271.37 1292.51,1265.97 C1284.65,1261.28 1274.97,1254.72 1270.34,1252.02 C1252.27,1241.62 1235.07,1232.67 1222.74,1225.05 C1217.97,1222.08 1207.05,1213.16 1206.24,1211.63 C1205.83,1210.68 1205.53,1209.31 1205.70,1208.39 C1206.39,1205.19 1214.11,1195.25 1214.84,1194.17 C1214.94,1193.93 1209.82,1197.85 1209.28,1197.99 C1209.04,1198.05 1208.51,1198.10 1207.69,1198.14 C1207.42,1197.17 1207.63,1196.28 1208.78,1194.91 C1211.36,1191.84 1225.35,1177.88 1228.27,1175.52 C1229.62,1174.42 1265.60,1144.67 1267.34,1143.35 C1272.62,1139.43 1284.95,1130.74 1286.63,1129.32 C1291.95,1124.85 1318.27,1110.08 1321.03,1108.97 C1323.98,1107.81 1330.06,1106.82 1332.85,1106.84 C1338.71,1106.91 1350.89,1110.15 1358.00,1112.73 C1363.33,1114.66 1376.16,1120.50 1382.73,1123.57 C1390.79,1127.54 1423.46,1147.64 1434.53,1153.38 C1436.70,1154.52 1453.69,1164.94 1455.17,1166.00 C1458.16,1168.18 1459.01,1169.61 1459.70,1171.02 C1455.93,1172.13 1450.77,1172.32 1447.79,1172.43 C1440.37,1172.58 1405.46,1169.83 1388.74,1168.50 C1375.99,1167.75 1366.19,1167.70 1360.91,1168.00 C1353.70,1168.41 1341.57,1170.80 1335.58,1172.58 C1330.16,1174.20 1315.28,1180.44 1310.70,1183.00 C1305.47,1185.97 1291.18,1198.28 1284.64,1204.00 C1281.95,1206.40 1276.16,1211.58 1274.19,1212.68 C1272.47,1213.59 1266.96,1213.90 1264.10,1212.64 C1256.93,1209.46 1250.84,1207.08 1248.23,1206.07 C1249.81,1205.86 1265.79,1207.44 1275.26,1209.21 C1282.85,1210.61 1294.33,1211.85 1304.73,1212.54 C1308.98,1212.77 1348.38,1213.51 1362.95,1213.95 C1378.70,1214.47 1410.01,1215.78 1425.57,1216.57 C1429.97,1216.80 1448.02,1216.78 1456.54,1216.72 C1467.86,1216.61 1476.57,1216.18 1482.40,1214.57 C1484.91,1213.87 1490.52,1211.99 1493.16,1210.95 C1496.78,1209.52 1500.43,1207.90 1503.42,1205.57 C1505.12,1204.23 1524.73,1188.02 1525.48,1187.64 C1526.35,1187.22 1532.93,1184.70 1533.43,1183.52 C1533.67,1182.89 1533.15,1181.29 1533.10,1180.79 C1535.61,1180.95 1537.26,1181.45 1539.63,1182.91 C1544.34,1185.81 1556.97,1191.22 1563.50,1193.96 C1572.77,1197.95 1605.36,1216.11 1615.02,1220.93 C1627.98,1227.09 1642.39,1231.44 1665.10,1239.44 C1689.39,1247.41 1714.74,1256.73 1716.57,1257.32 C1719.28,1258.18 1725.53,1259.64 1729.55,1260.37 C1732.75,1260.92 1738.48,1260.90 1741.78,1260.05 C1744.17,1259.41 1762.94,1249.58 1764.11,1249.33 C1764.69,1249.22 1765.93,1250.64 1766.10,1251.06 C1766.90,1253.30 1765.42,1269.77 1766.61,1275.08 C1767.45,1278.67 1770.33,1283.19 1772.84,1285.15 C1777.04,1288.34 1791.29,1293.43 1798.03,1295.65 C1804.88,1297.75 1818.59,1301.91 1819.57,1302.60 C1816.02,1303.09 1775.23,1304.06 1760.46,1304.27 C1740.82,1304.41 1719.48,1305.31 1703.47,1307.53 C1676.78,1311.76 1673.52,1311.71 1670.94,1311.56 C1672.07,1309.02 1679.53,1303.56 1687.54,1298.38 C1694.02,1294.32 1709.61,1284.69 1712.97,1282.79 C1715.23,1281.52 1759.34,1259.38 1760.96,1258.27 C1764.73,1255.64 1775.03,1244.53 1777.45,1242.65 C1781.22,1239.75 1790.24,1234.72 1793.72,1232.79 C1784.19,1237.15 1777.20,1240.03 1768.56,1243.17 C1757.79,1246.97 1749.19,1250.64 1740.20,1255.25 C1736.01,1257.38 1731.36,1259.61 1729.81,1260.18 C1741.29,1252.31 1797.10,1218.11 1807.84,1214.09 C1811.12,1212.88 1815.83,1212.35 1817.87,1212.32 C1821.75,1212.31 1833.35,1215.07 1844.24,1218.17 C1847.88,1219.15 1852.51,1219.21 1855.95,1218.55 C1860.94,1217.54 1869.31,1214.02 1875.12,1210.24 C1881.83,1205.81 1896.35,1196.03 1899.49,1193.61 C1907.40,1187.42 1924.85,1172.36 1942.66,1159.09 C1951.39,1152.57 1952.51,1151.42 1953.32,1150.39 C1951.65,1150.12 1936.78,1158.59 1929.48,1162.61 C1919.21,1167.92 1896.45,1178.22 1881.82,1186.34 C1882.74,1185.68 1884.77,1184.19 1885.49,1184.14 C1885.97,1184.11 1887.14,1184.22 1889.02,1184.47" fill="none" stroke="rgb(255, 176, 55)" stroke-width="80.00" stroke-opacity="1.00" stroke-linejoin="round"/>
<path d="M1883.74,1264.62 C1885.06,1265.04 1887.19,1265.63 1888.40,1265.84 C1894.08,1266.75 1902.00,1265.26 1913.34,1263.76 C1917.22,1263.25 1923.41,1262.47 1925.46,1262.60 C1939.51,1263.48 1990.31,1265.22 2003.40,1265.84 C2008.75,1266.12 2047.50,1264.04 2061.08,1263.29 C2111.60,1261.43 2158.99,1260.55 2173.35,1260.25 C2174.67,1260.24 2175.99,1260.22 2177.30,1260.20 C2174.96,1258.28 2160.05,1246.94 2156.23,1244.52 C2152.47,1242.15 2117.51,1223.48 2110.64,1218.70 C2108.64,1217.31 2093.03,1205.91 2086.97,1201.54 C2082.39,1198.12 2069.70,1187.79 2064.88,1185.87 C2062.06,1184.78 2057.23,1184.42 2052.41,1184.39 C2043.63,1184.44 2035.63,1183.78 2030.66,1182.16 C2024.96,1180.26 2016.23,1174.46 2010.27,1169.07 C1998.61,1158.50 1971.51,1136.78 1969.25,1135.68 C1966.49,1134.33 1965.79,1133.17 1965.81,1132.67 C1965.81,1132.67 1968.35,1131.11 1968.35,1131.11 C1970.20,1131.83 1970.96,1132.36 1971.76,1133.72 C1971.90,1133.96 1998.02,1168.34 2003.64,1174.84 C2008.78,1180.65 2021.10,1194.33 2023.40,1196.53 C2026.67,1199.62 2040.57,1209.67 2043.21,1211.29 C2049.63,1215.20 2061.18,1219.35 2061.56,1220.06 C2060.61,1221.27 2055.75,1222.72 2052.36,1222.99 C2048.54,1223.26 2030.07,1223.23 2022.60,1223.27 C2006.19,1223.78 1984.56,1226.31 1968.80,1228.83 C1962.16,1230.02 1934.90,1234.55 1928.71,1235.32 C1924.64,1235.97 1918.93,1238.67 1917.46,1239.22 C1916.17,1239.70 1907.44,1241.91 1904.91,1242.75 C1902.18,1243.66 1897.02,1246.79 1894.63,1248.63 C1889.36,1253.09 1877.74,1262.61 1872.35,1265.82 C1866.54,1269.25 1854.83,1273.87 1850.16,1276.30 C1848.88,1276.97 1845.44,1278.75 1845.01,1279.00 C1844.69,1279.19 1842.20,1280.87 1840.51,1281.98 C1839.85,1282.41 1839.20,1282.84 1838.54,1283.27" fill="none" stroke="rgb(255, 176, 55)" stroke-width="80.00" stroke-opacity="1.00" stroke-linejoin="round"/>
<path d="M2015.08,1344.35 C2012.21,1344.96 1995.66,1352.49 1983.95,1358.13 C1983.65,1358.26 1977.23,1361.71 1976.51,1362.26 C1975.92,1362.72 1971.64,1365.09 1971.00,1365.29 C1968.98,1365.95 1959.33,1373.66 1956.95,1374.93 C1950.39,1378.57 1946.05,1380.04 1945.38,1380.72 C1945.38,1380.72 1937.67,1383.47 1937.67,1383.47 C1937.67,1383.47 1944.28,1382.37 1944.28,1382.37 C1945.46,1382.43 1986.62,1368.36 1988.35,1368.04 C1990.59,1367.63 1992.03,1366.60 1992.21,1366.39 C1993.05,1365.95 1994.85,1365.24 1995.24,1364.46 C1995.84,1363.73 1995.78,1362.56 1995.79,1362.26 C1994.55,1361.45 1990.81,1360.85 1980.70,1360.89 C1973.73,1360.90 1971.42,1360.84 1969.35,1361.43 C1965.44,1362.11 1957.33,1362.53 1955.30,1363.09 C1946.50,1365.49 1940.00,1365.27 1939.87,1365.29 C1941.73,1364.14 1959.48,1355.68 1988.63,1346.83 C1996.77,1343.57 2017.46,1340.45 2018.66,1340.50 C2017.92,1340.35 2008.95,1344.96 2008.46,1345.18 C2002.08,1347.50 1993.31,1352.34 1979.54,1359.23 C1977.67,1360.02 1967.45,1365.43 1964.66,1366.39 C1959.74,1368.09 1959.41,1368.94 1959.15,1369.15 C1965.03,1367.49 1966.63,1367.49 1970.45,1365.56 C1970.89,1365.34 1986.01,1360.06 1988.08,1359.23 C1990.97,1358.26 2002.02,1355.82 2003.78,1354.55 C2004.13,1354.29 2010.36,1353.17 2010.39,1353.17 C2011.44,1353.13 2020.24,1351.00 2020.03,1351.79 C2015.58,1356.20 2005.88,1361.23 2001.30,1363.36 C2001.00,1363.50 1987.51,1369.85 1987.25,1369.97 C1983.93,1371.57 1980.45,1373.12 1979.54,1373.55 C1979.54,1373.55 1995.52,1364.74 1995.52,1364.74 C1995.52,1364.74 2001.85,1361.98 2001.85,1361.98" fill="none" stroke="rgb(255, 255, 255)" stroke-width="8.00" stroke-opacity="1.00" stroke-linejoin="round"/>
<path d="M1994.60,1324.79 C1994.60,1324.79 1997.84,1321.76 1997.84,1321.76 C1998.22,1324.10 1993.67,1339.14 1990.46,1346.83 C1982.77,1364.83 1975.07,1379.04 1971.57,1384.20 C1970.20,1386.20 1966.71,1389.32 1964.70,1390.57 C1962.04,1392.14 1960.08,1391.79 1957.66,1390.84 C1957.56,1387.32 1958.05,1383.41 1959.42,1378.93 C1961.33,1372.82 1965.61,1362.68 1969.14,1355.43 C1972.02,1349.73 1979.32,1337.98 1981.55,1336.87 C1981.91,1336.70 1982.73,1336.45 1984.01,1336.12 C1985.09,1337.42 1985.60,1343.74 1985.24,1346.99 C1984.72,1351.40 1980.67,1364.67 1978.36,1370.29 C1974.15,1380.15 1969.57,1389.92 1965.49,1397.09 C1963.08,1401.23 1960.67,1405.03 1958.93,1407.17 C1956.96,1409.52 1954.89,1410.98 1951.30,1412.82 C1949.46,1411.61 1948.79,1410.15 1949.20,1407.79 C1950.26,1401.85 1963.94,1367.57 1969.92,1352.22 C1973.92,1341.81 1977.90,1332.43 1978.62,1332.10 C1977.72,1338.30 1973.79,1349.49 1968.97,1360.45 C1965.62,1367.58 1959.61,1380.09 1955.44,1387.28 C1950.66,1395.08 1944.26,1404.10 1940.25,1408.35 C1937.95,1410.74 1935.43,1412.60 1934.25,1413.25 C1934.25,1413.25 1932.50,1411.77 1932.50,1411.77 C1933.02,1407.35 1934.64,1402.33 1936.16,1398.16 C1946.05,1371.50 1958.40,1338.44 1960.86,1332.03 C1962.01,1329.15 1963.24,1326.37 1966.08,1323.18 C1967.76,1324.10 1968.68,1325.48 1968.87,1327.71 C1969.23,1331.97 1966.95,1344.72 1964.69,1351.29 C1963.55,1354.60 1957.79,1368.80 1955.26,1374.57 C1949.66,1387.08 1939.62,1399.98 1937.53,1402.58 C1935.69,1404.84 1934.16,1405.86 1931.83,1406.54 C1931.15,1405.71 1931.02,1404.05 1931.50,1401.05 C1932.95,1392.04 1954.35,1342.30 1956.88,1336.68 C1958.78,1332.58 1959.75,1331.62 1961.74,1330.19 C1961.65,1335.08 1958.13,1350.09 1955.42,1357.01 C1951.59,1366.58 1948.14,1374.40 1944.28,1381.61 C1941.03,1387.55 1934.65,1397.94 1930.72,1403.73 C1928.43,1406.94 1926.95,1408.07 1924.37,1409.72 C1924.03,1407.25 1924.03,1405.79 1924.52,1404.42 C1925.44,1401.84 1940.91,1365.46 1946.94,1349.03 C1949.65,1341.61 1954.67,1328.06 1956.88,1323.55 C1956.88,1323.55 1958.20,1323.46 1958.20,1323.46 C1958.49,1327.32 1956.76,1337.82 1954.57,1345.58 C1951.49,1355.95 1948.39,1364.50 1944.50,1372.98 C1940.34,1381.76 1936.73,1388.51 1931.77,1396.97 C1929.95,1400.09 1926.91,1403.56 1925.75,1404.87 C1925.22,1403.37 1925.23,1402.11 1926.03,1400.11 C1927.41,1396.64 1945.46,1357.67 1952.17,1343.23 C1955.20,1336.89 1960.39,1327.87 1962.25,1325.45 C1962.25,1325.45 1964.42,1325.51 1964.42,1325.51 C1965.46,1329.53 1963.93,1341.68 1962.11,1348.99 C1961.03,1353.31 1956.84,1365.43 1953.80,1372.54 C1950.58,1379.82 1944.32,1393.26 1940.03,1400.27 C1937.66,1404.00 1936.44,1405.10 1933.93,1407.00 C1934.39,1402.92 1938.17,1392.18 1943.37,1380.77 C1950.71,1365.28 1964.99,1335.33 1968.93,1327.53 C1970.87,1323.68 1971.73,1322.93 1973.41,1322.09 C1973.49,1327.59 1973.24,1332.38 1972.01,1337.39 C1970.35,1344.03 1966.80,1355.33 1963.78,1363.62 C1961.00,1370.77 1955.99,1381.49 1952.79,1388.19 C1950.19,1393.47 1944.35,1402.75 1939.85,1407.60 C1939.45,1404.32 1940.49,1400.98 1941.56,1398.37 C1944.51,1391.28 1961.20,1354.79 1968.21,1338.95 C1972.49,1329.15 1974.04,1326.72 1975.60,1324.51 C1975.60,1324.51 1977.70,1324.76 1977.70,1324.76 C1977.68,1330.68 1975.25,1342.41 1973.43,1348.16 C1972.47,1351.19 1966.31,1367.92 1963.26,1374.63 C1960.28,1380.96 1954.45,1393.12 1950.43,1400.22 C1946.83,1406.51 1944.00,1409.19 1943.36,1409.78 C1943.56,1406.74 1944.14,1404.04 1945.98,1399.88 C1959.29,1370.90 1979.69,1323.88 1981.49,1321.63 C1982.16,1324.97 1979.48,1337.43 1977.57,1344.14 C1975.19,1352.29 1962.87,1385.04 1955.67,1401.67 C1953.95,1405.51 1952.40,1408.37 1949.44,1413.57 C1950.52,1409.55 1965.87,1375.59 1972.51,1358.86 C1979.49,1340.64 1984.61,1328.30 1986.13,1325.21 C1986.13,1325.21 1987.54,1324.99 1987.54,1324.99 C1987.84,1329.43 1985.46,1340.43 1982.26,1350.39 C1977.91,1363.11 1965.95,1390.51 1959.69,1404.39 C1958.13,1407.83 1957.70,1408.62 1954.88,1413.27 C1954.61,1411.72 1956.49,1407.41 1957.85,1404.37 C1963.80,1391.32 1976.28,1363.15 1982.45,1348.05 C1983.49,1345.42 1987.30,1336.00 1990.05,1331.52 C1990.05,1331.52 1991.03,1332.26 1991.03,1332.26 C1991.32,1337.02 1988.73,1347.42 1985.86,1355.81 C1982.93,1364.11 1978.53,1374.17 1974.95,1381.70 C1965.60,1400.10 1957.44,1412.32 1955.77,1414.05 C1955.11,1411.54 1956.72,1407.67 1958.77,1403.44 C1965.35,1390.39 1977.55,1365.50 1986.17,1345.89 C1990.83,1335.30 1994.51,1327.40 1997.15,1323.27 C1997.15,1323.27 1998.77,1323.03 1998.77,1323.03 C1999.68,1326.67 1997.90,1338.09 1996.08,1344.98 C1992.66,1356.97 1984.45,1379.48 1976.61,1398.41 C1973.05,1406.37 1966.96,1419.24 1964.02,1424.29 C1963.62,1422.20 1964.93,1418.50 1966.24,1415.28 C1972.30,1400.44 1984.06,1370.90 1989.34,1356.22 C1997.61,1331.23 2000.12,1324.55 2001.71,1321.73 C2001.71,1321.73 2003.00,1322.09 2003.00,1322.09 C2003.59,1326.59 2001.41,1341.48 1999.11,1349.34 C1997.05,1356.18 1992.13,1371.38 1989.51,1378.89 C1984.07,1393.69 1973.96,1412.80 1971.49,1415.98 C1971.49,1415.98 1969.16,1415.35 1969.16,1415.35 C1969.54,1411.46 1980.80,1377.45 1985.60,1363.11 C1995.00,1333.49 1995.28,1332.78 1996.12,1331.10 C1996.12,1331.10 1997.46,1331.21 1997.46,1331.21 C1997.50,1335.93 1995.05,1349.08 1993.01,1357.16 C1990.91,1364.90 1986.54,1380.32 1983.89,1388.64 C1980.21,1399.33 1977.35,1406.86 1974.84,1411.81 C1974.24,1412.98 1973.51,1413.46 1972.13,1413.82 C1972.76,1410.81 1986.38,1374.26 1990.97,1361.04 C1993.43,1353.57 1998.08,1339.21 2000.27,1332.30 C2002.70,1324.56 2004.78,1321.22 2006.86,1319.35 C2007.80,1323.75 2006.59,1338.30 2004.87,1346.34 C2003.53,1352.55 1999.15,1367.50 1996.68,1375.00 C1994.26,1381.89 1989.19,1395.85 1987.30,1400.44 C1983.50,1409.46 1981.50,1412.18 1978.45,1415.25 C1978.82,1410.28 1988.70,1383.52 1995.40,1363.30 C1998.00,1354.95 2002.60,1339.76 2004.61,1332.91 C2005.38,1330.37 2006.95,1327.80 2007.65,1326.58 C2007.87,1331.24 2005.67,1343.86 2004.70,1347.99 C2003.52,1352.99 1991.32,1393.77 1987.40,1403.20 C1985.52,1407.66 1984.58,1408.89 1983.78,1408.95 C1984.43,1405.93 1997.86,1367.29 2001.41,1354.38 C2004.91,1339.97 2008.54,1325.06 2008.84,1324.02 C2009.38,1327.20 2008.30,1333.53 2007.57,1337.54 C2005.46,1348.24 1996.66,1377.71 1992.11,1392.56 C1989.63,1400.33 1985.62,1412.83 1983.54,1417.29 C1985.23,1411.88 1998.63,1376.97 2002.79,1362.25 C2006.80,1346.82 2011.36,1327.68 2013.28,1323.37 C2013.23,1328.22 2011.37,1339.06 2009.24,1348.33 C2005.08,1364.81 1991.46,1410.44 1991.16,1411.41 C1991.56,1409.59 1997.21,1393.97 1999.58,1386.89 C2006.16,1365.61 2013.68,1333.16 2014.57,1329.71 C2015.22,1330.70 2012.44,1345.83 2010.90,1351.49 C1994.33,1408.76 1992.82,1413.10 1991.93,1415.40 C1991.97,1415.10 1997.85,1400.32 2000.81,1392.86 C2004.59,1383.03 2006.57,1377.10 2009.19,1367.40 C2014.48,1346.70 2017.57,1333.02 2018.07,1330.65 C2017.23,1339.86 2013.01,1355.83 2005.39,1381.44 C1998.85,1403.51 1995.45,1417.28 1995.52,1417.69 C2000.80,1404.50 2009.93,1377.72 2013.05,1366.98 C2015.77,1356.72 2020.92,1334.17 2022.08,1329.26 C2020.76,1338.53 2019.31,1346.68 2016.50,1357.28 C2008.46,1386.04 2000.01,1416.42 1999.60,1418.05 C2000.23,1417.16 2006.85,1403.06 2009.10,1397.50 C2011.71,1390.70 2017.15,1375.96 2019.83,1367.88 C2022.35,1359.65 2027.98,1339.24 2028.06,1338.91 C2028.53,1336.98 2028.99,1336.21 2029.90,1335.55 C2029.32,1344.06 2023.20,1371.59 2017.82,1392.08 C2015.68,1400.07 2012.33,1412.47 2011.12,1416.88 C2013.74,1409.78 2018.96,1394.89 2020.50,1389.70 C2024.49,1375.21 2029.38,1353.48 2030.44,1348.36 C2030.15,1351.82 2027.50,1362.63 2024.51,1372.64 C2018.71,1390.82 2012.00,1409.13 2009.50,1415.76 C2016.21,1400.83 2026.41,1375.14 2031.59,1359.06 C2035.00,1348.25 2035.50,1347.24 2036.89,1345.16 C2036.85,1350.32 2034.46,1363.08 2033.07,1368.24 C2028.99,1382.50 2019.73,1411.07 2015.15,1424.45 C2015.84,1423.62 2022.99,1409.25 2026.15,1402.01 C2032.55,1386.71 2040.61,1362.31 2041.70,1359.68 C2041.63,1362.78 2038.09,1377.31 2036.31,1384.52 C2035.26,1388.51 2032.49,1399.18 2031.85,1402.19 C2031.85,1402.19 2032.82,1402.95 2032.82,1402.95 C2032.82,1402.95 2048.80,1383.92 2048.80,1383.92 C2048.80,1383.92 2050.45,1384.83 2050.45,1384.83 C2050.36,1387.18 2050.16,1388.50 2049.61,1389.57 C2048.49,1391.71 2045.03,1396.43 2042.92,1398.88 C2039.36,1402.97 2032.11,1408.59 2031.15,1409.34" fill="none" stroke="rgb(255, 255, 255)" stroke-width="8.00" stroke-opacity="1.00" stroke-linejoin="round"/>
<path d="M1979.05,1356.75 C1985.04,1351.74 1997.39,1344.73 2001.69,1343.67 C2003.15,1343.33 2006.47,1343.09 2008.07,1343.24 C2011.48,1343.61 2016.15,1347.14 2017.77,1349.43 C2019.22,1351.58 2020.80,1356.14 2020.96,1358.90 C2021.08,1361.67 2020.09,1368.43 2019.01,1372.66 C2017.95,1376.69 2015.43,1383.64 2014.08,1386.31 C2013.26,1387.90 2009.85,1393.20 2008.66,1394.07 C2007.91,1394.60 2005.72,1395.73 2004.20,1396.47 C2003.17,1395.79 2001.06,1394.52 2000.68,1393.97 C1999.32,1391.98 1998.65,1385.02 1998.74,1382.71 C1998.88,1379.62 2000.00,1373.68 2001.04,1370.72 C2002.18,1367.56 2005.43,1361.40 2007.87,1357.95 C2010.02,1354.97 2013.25,1352.06 2015.73,1350.71 C2017.21,1349.98 2020.10,1349.23 2021.75,1349.40 C2023.37,1349.58 2026.26,1350.99 2027.36,1351.91 C2029.51,1353.82 2032.20,1357.48 2033.06,1359.71 C2033.82,1361.75 2034.58,1366.67 2034.65,1369.16 C2034.71,1371.81 2033.99,1377.10 2033.04,1380.25 C2032.05,1383.45 2029.37,1389.52 2027.85,1391.90 C2026.64,1393.77 2022.64,1398.23 2020.32,1399.41 C2018.97,1400.04 2015.65,1400.14 2014.22,1399.58 C2011.53,1398.44 2008.40,1394.20 2007.55,1392.35 C2006.55,1390.09 2005.21,1384.60 2004.88,1381.49 C2004.56,1378.36 2004.69,1372.00 2005.21,1369.01 C2005.81,1365.72 2008.04,1359.77 2010.04,1356.39 C2011.79,1353.48 2015.18,1350.06 2017.59,1348.61 C2020.29,1347.02 2024.75,1345.56 2027.33,1345.40 C2029.99,1345.26 2036.07,1346.53 2038.99,1347.80 C2041.92,1349.12 2046.59,1352.76 2048.57,1355.16 C2050.46,1357.50 2053.46,1363.05 2054.47,1366.11 C2055.48,1369.29 2056.45,1376.44 2056.33,1379.70 C2056.18,1382.89 2054.21,1389.57 2052.81,1392.14 C2051.51,1394.46 2047.81,1398.48 2046.08,1399.47 C2044.21,1400.50 2039.50,1401.43 2037.15,1401.21 C2034.81,1400.95 2030.72,1399.09 2028.89,1397.51 C2027.11,1395.95 2024.10,1391.76 2022.99,1389.36 C2021.96,1387.07 2020.17,1380.21 2019.87,1377.45 C2019.59,1374.71 2020.20,1368.89 2021.08,1366.79 C2022.11,1364.44 2025.91,1359.52 2028.89,1356.85 C2031.46,1354.59 2035.94,1352.16 2038.51,1351.60 C2041.52,1351.01 2046.52,1351.59 2049.05,1352.60 C2051.43,1353.58 2054.78,1356.55 2056.10,1358.64 C2057.32,1360.63 2059.25,1365.54 2059.69,1368.14 C2060.14,1370.99 2059.79,1377.55 2059.04,1380.88 C2058.24,1384.28 2055.73,1389.95 2053.59,1393.29 C2051.78,1396.07 2048.15,1400.34 2046.04,1402.16 C2043.89,1403.96 2038.86,1406.62 2035.84,1406.50 C2034.20,1406.40 2031.30,1405.22 2030.29,1404.43 C2028.30,1402.74 2025.26,1398.30 2023.99,1395.31 C2022.75,1392.31 2021.48,1386.06 2021.37,1382.66 C2021.28,1379.28 2022.16,1372.41 2023.12,1369.61 C2024.77,1364.93 2032.09,1354.56 2035.59,1351.89 C2037.89,1350.17 2042.14,1348.54 2045.67,1348.83 C2047.12,1348.97 2051.39,1351.54 2053.31,1353.50 C2055.32,1355.61 2058.40,1360.68 2059.67,1363.97 C2060.86,1367.13 2062.18,1373.26 2062.34,1376.28 C2062.46,1379.08 2061.90,1385.29 2061.24,1388.34 C2059.87,1394.50 2054.60,1403.53 2053.19,1404.81 C2051.20,1406.55 2048.44,1407.34 2046.28,1406.78 C2044.69,1406.32 2040.20,1402.57 2038.71,1400.31 C2037.35,1398.18 2035.49,1392.73 2034.65,1388.98 C2032.97,1381.37 2032.70,1369.13 2033.86,1361.94 C2034.52,1357.97 2036.44,1352.62 2037.91,1350.49 C2039.64,1348.08 2043.11,1345.83 2045.19,1345.48 C2047.19,1345.18 2051.00,1346.52 2052.70,1348.04 C2054.37,1349.60 2057.13,1354.34 2058.12,1357.19 C2059.05,1359.95 2059.83,1365.36 2059.75,1368.23 C2059.65,1371.09 2058.59,1377.13 2057.65,1379.78 C2056.67,1382.48 2052.73,1389.01 2050.74,1391.33 C2048.85,1393.49 2044.13,1396.74 2042.18,1397.30 C2040.14,1397.85 2035.61,1397.64 2033.41,1396.76 C2031.15,1395.80 2026.43,1392.02 2024.20,1389.47 C2022.02,1386.94 2018.69,1381.46 2017.40,1378.28 C2016.12,1375.06 2014.07,1367.21 2013.60,1363.48 C2013.13,1359.50 2013.60,1353.32 2014.67,1349.74 C2015.60,1346.72 2018.21,1342.07 2020.05,1340.09 C2021.31,1338.76 2022.55,1337.77 2023.92,1337.00 C2024.98,1336.46 2028.20,1335.91 2029.60,1336.26 C2031.02,1336.64 2033.44,1338.65 2034.15,1339.71 C2035.47,1341.89 2036.72,1346.50 2036.84,1349.40 C2036.93,1352.27 2035.93,1357.92 2034.87,1360.89 C2033.79,1363.82 2030.64,1369.86 2028.76,1372.50 C2026.88,1375.13 2020.94,1381.27 2018.25,1383.46 C2015.78,1385.45 2010.82,1388.14 2008.73,1388.77 C2007.77,1389.04 2004.69,1389.45 2003.68,1389.26 C2001.36,1388.77 1997.46,1384.24 1996.35,1382.36 C1995.00,1380.03 1993.15,1374.99 1992.60,1372.17 C1991.58,1366.65 1992.42,1353.99 1994.17,1346.76 C1994.66,1344.83 1995.79,1341.64 1996.47,1340.62 C1996.86,1340.06 1998.78,1338.85 1999.74,1338.19 C2003.21,1339.88 2005.76,1341.71 2007.02,1343.90 C2008.38,1346.39 2009.94,1350.91 2010.29,1353.58 C2010.61,1356.16 2010.20,1361.60 2009.50,1364.46 C2008.80,1367.28 2006.36,1373.36 2004.76,1376.03 C2002.90,1379.07 1998.45,1384.79 1996.31,1386.70 C1994.33,1388.44 1990.05,1390.88 1987.75,1391.40 C1987.35,1391.48 1984.49,1391.83 1983.71,1391.74 C1981.44,1391.43 1978.82,1390.13 1977.25,1388.53 C1976.21,1387.44 1974.11,1383.02 1973.58,1380.65 C1973.02,1377.99 1972.93,1371.88 1973.40,1367.96 C1974.36,1360.45 1979.69,1345.68 1981.95,1342.63 C1982.65,1341.70 1984.64,1339.47 1986.03,1337.99 C1987.18,1338.06 1989.50,1338.16 1990.05,1338.35 C1992.38,1339.20 1995.00,1344.47 1995.32,1346.81 C1995.55,1348.85 1994.79,1353.62 1993.77,1356.43 C1991.46,1362.64 1984.00,1374.62 1979.86,1378.84 C1975.86,1382.87 1969.72,1385.94 1968.17,1386.20 C1965.83,1386.56 1962.95,1386.03 1961.07,1384.87 C1959.67,1383.98 1957.30,1380.08 1956.64,1377.50 C1956.03,1374.92 1955.96,1369.59 1956.50,1366.62 C1958.72,1355.01 1969.29,1339.67 1970.63,1338.21 C1972.33,1336.42 1973.76,1335.56 1975.49,1335.35 C1977.19,1335.22 1978.68,1335.73 1979.48,1336.89 C1980.93,1339.09 1980.89,1345.55 1980.18,1348.32 C1978.88,1353.11 1971.25,1367.65 1967.20,1373.04 C1965.12,1375.77 1960.95,1380.15 1958.80,1381.85 C1956.69,1383.49 1952.21,1385.87 1950.23,1386.35 C1947.98,1386.86 1944.41,1385.97 1942.68,1384.47 C1941.07,1383.02 1938.83,1379.04 1938.15,1376.52 C1936.90,1371.61 1937.22,1359.80 1938.74,1352.54 C1940.06,1346.31 1943.40,1336.35 1946.31,1331.24 C1947.54,1329.13 1949.20,1328.39 1952.20,1328.38 C1954.26,1330.37 1955.77,1335.48 1955.81,1338.42 C1955.81,1343.90 1951.98,1359.02 1948.62,1366.39 C1946.39,1371.25 1939.52,1382.88 1936.42,1386.56 C1934.50,1388.81 1929.58,1393.11 1927.15,1393.84 C1925.52,1394.28 1923.90,1393.81 1922.64,1392.57 C1921.32,1391.18 1920.52,1389.64 1920.33,1388.13 C1920.12,1386.20 1920.38,1382.16 1921.18,1375.64 C1921.79,1371.06 1927.92,1351.08 1929.64,1346.29 C1931.82,1340.34 1934.33,1337.05 1935.00,1336.18 C1937.29,1336.90 1938.54,1338.01 1939.08,1340.02 C1939.55,1341.81 1939.87,1346.43 1939.60,1349.18 C1939.01,1354.72 1934.40,1367.57 1931.42,1373.74 C1929.66,1377.35 1926.38,1383.12 1924.31,1385.99 C1922.20,1388.88 1917.92,1393.41 1915.50,1395.37 C1912.79,1397.51 1910.89,1398.26 1908.60,1398.89 C1907.66,1398.25 1905.27,1396.69 1904.92,1395.99 C1903.82,1393.75 1904.13,1388.59 1904.64,1383.54 C1905.07,1379.67 1910.46,1362.64 1912.91,1357.14 C1915.42,1351.62 1918.70,1348.30 1919.44,1347.56 C1922.10,1348.33 1923.86,1349.40 1924.54,1351.13 C1925.64,1353.97 1925.80,1360.04 1925.54,1362.26 C1925.19,1365.10 1923.55,1371.20 1922.10,1374.79 C1919.00,1382.34 1912.18,1392.79 1908.21,1396.50 C1907.17,1397.44 1904.58,1399.23 1903.09,1399.97 C1901.41,1400.74 1898.27,1400.99 1897.22,1400.29 C1895.32,1398.93 1893.71,1393.70 1893.59,1391.87 C1893.35,1387.52 1897.04,1372.72 1899.74,1366.27 C1900.67,1364.08 1904.45,1356.92 1905.92,1355.45 C1906.45,1354.92 1908.79,1353.82 1909.93,1353.24 C1910.77,1354.21 1912.57,1356.15 1912.81,1356.85 C1913.64,1359.32 1912.62,1365.76 1911.93,1367.81 C1910.10,1373.06 1902.04,1386.30 1898.29,1390.53 C1894.97,1394.24 1888.88,1398.49 1886.61,1399.05 C1885.20,1399.36 1882.54,1398.67 1881.32,1397.71 C1879.11,1395.86 1877.93,1390.54 1878.09,1388.01 C1878.27,1385.76 1879.66,1380.59 1880.90,1377.84 C1883.24,1372.77 1891.95,1359.84 1893.86,1359.55 C1894.20,1359.51 1894.94,1359.64 1896.07,1359.95 C1897.40,1363.07 1898.02,1365.96 1897.47,1368.57 C1896.24,1374.03 1891.19,1383.85 1887.32,1388.79 C1885.48,1391.11 1882.01,1394.81 1880.31,1396.17 C1878.24,1397.79 1872.98,1400.17 1871.09,1399.24 C1869.17,1398.21 1867.33,1391.78 1867.26,1389.01 C1867.24,1386.64 1868.22,1381.16 1869.13,1378.39 C1870.97,1372.89 1875.87,1364.59 1879.54,1360.10 C1880.87,1358.55 1881.95,1357.91 1883.66,1357.68 C1884.15,1357.62 1884.79,1357.53 1885.59,1357.40 C1886.57,1358.42 1888.69,1360.48 1888.94,1361.18 C1889.59,1363.07 1888.67,1369.86 1888.08,1371.72 C1886.41,1376.78 1878.91,1388.60 1874.98,1392.62 C1872.67,1394.92 1866.73,1398.70 1864.64,1398.48 C1864.18,1398.41 1861.01,1396.47 1860.70,1396.06 C1859.35,1394.22 1859.11,1388.03 1859.62,1385.30 C1860.12,1382.80 1862.23,1376.67 1863.57,1374.20 C1865.08,1371.48 1868.76,1366.49 1870.71,1364.38 C1871.97,1363.04 1876.66,1359.44 1878.51,1359.64 C1880.60,1359.92 1885.89,1364.36 1887.04,1366.14 C1888.25,1368.09 1889.52,1372.10 1889.80,1374.87 C1890.06,1377.66 1889.82,1383.97 1889.30,1386.77 C1888.33,1391.82 1883.00,1402.11 1880.45,1404.30 C1878.68,1405.76 1876.91,1406.53 1874.78,1406.74 C1872.73,1406.85 1871.30,1406.29 1870.49,1404.79 C1869.15,1402.17 1868.36,1396.36 1868.46,1394.50 C1868.61,1392.40 1869.81,1387.90 1870.82,1385.60 C1871.95,1383.09 1874.72,1378.72 1877.17,1375.88 C1879.36,1373.37 1882.90,1370.16 1885.23,1368.57 C1886.54,1367.75 1888.88,1366.97 1890.37,1367.07 C1893.24,1367.30 1897.99,1371.75 1899.15,1373.82 C1900.16,1375.72 1901.39,1380.48 1901.64,1383.42 C1901.86,1386.43 1901.40,1391.83 1900.69,1394.62 C1900.04,1397.07 1897.95,1402.26 1896.76,1404.41 C1895.44,1406.75 1892.32,1410.44 1890.73,1411.63 C1888.92,1412.92 1886.09,1414.35 1884.97,1414.34 C1883.75,1414.29 1882.10,1412.56 1881.23,1410.70 C1880.53,1409.12 1880.12,1404.40 1880.49,1401.56 C1881.24,1396.12 1885.42,1384.40 1888.92,1377.59 C1890.43,1374.71 1894.33,1368.37 1896.22,1366.10 C1897.68,1364.37 1902.38,1360.59 1904.52,1360.29 C1905.86,1360.13 1908.30,1361.00 1909.32,1361.78 C1911.32,1363.42 1913.95,1366.99 1914.68,1369.21 C1915.40,1371.49 1915.50,1376.94 1914.83,1380.33 C1914.11,1383.79 1911.57,1390.69 1909.83,1393.74 C1908.19,1396.55 1904.05,1401.82 1901.89,1403.99 C1899.71,1406.16 1895.32,1409.41 1892.87,1410.63 C1890.92,1411.57 1885.15,1413.32 1883.04,1412.85 C1880.85,1412.31 1877.60,1406.62 1877.07,1404.32 C1876.66,1402.36 1877.03,1398.25 1877.77,1396.17 C1878.56,1394.04 1881.26,1389.72 1883.15,1387.57 C1885.12,1385.37 1890.02,1381.17 1892.95,1379.21 C1896.17,1377.09 1903.10,1373.63 1906.04,1372.84 C1908.96,1372.10 1914.79,1372.17 1917.39,1372.73 C1919.63,1373.24 1922.83,1374.93 1924.70,1376.58 C1926.78,1378.45 1930.67,1383.11 1932.05,1385.70 C1933.44,1388.34 1935.40,1394.83 1935.87,1397.87 C1936.28,1400.59 1936.09,1405.30 1935.45,1408.08 C1934.77,1410.94 1932.35,1417.95 1931.42,1419.90 C1930.30,1422.12 1928.67,1424.28 1927.36,1425.04 C1925.94,1425.80 1922.96,1426.19 1921.65,1425.58 C1919.03,1424.31 1916.11,1419.40 1915.68,1417.40 C1915.23,1415.10 1915.62,1409.48 1916.46,1406.38 C1918.21,1400.11 1926.07,1387.23 1930.10,1382.09 C1932.16,1379.50 1936.46,1375.00 1938.06,1373.70 C1941.36,1371.05 1947.55,1368.01 1951.24,1367.14 C1954.84,1366.35 1961.36,1366.46 1964.54,1367.34 C1967.28,1368.14 1973.67,1371.32 1976.32,1373.19 C1979.07,1375.15 1983.32,1379.45 1985.37,1382.10 C1987.04,1384.29 1990.15,1389.60 1990.89,1391.43 C1992.38,1395.17 1993.42,1402.13 1993.06,1405.84 C1992.67,1409.51 1990.28,1417.45 1988.69,1420.58 C1987.24,1423.36 1983.66,1427.41 1981.63,1428.78 C1979.38,1430.24 1973.15,1431.89 1970.40,1430.62 C1969.01,1429.95 1967.00,1428.04 1966.38,1426.99 C1965.24,1424.86 1964.10,1420.48 1963.97,1417.72 C1963.86,1414.60 1964.90,1408.07 1965.85,1404.90 C1967.75,1398.70 1973.06,1387.05 1976.49,1382.05 C1979.89,1377.14 1989.60,1367.58 1994.50,1364.84 C1997.33,1363.29 2002.57,1362.12 2005.38,1362.27 C2008.19,1362.47 2013.73,1364.18 2016.53,1365.82 C2019.44,1367.57 2025.18,1372.60 2027.30,1375.26 C2029.36,1377.91 2031.78,1383.56 2032.20,1386.82 C2032.61,1390.25 2031.90,1398.20 2030.85,1401.69 C2029.81,1405.02 2026.30,1411.02 2023.99,1413.67 C2021.68,1416.26 2016.46,1420.20 2013.52,1421.45 C2010.53,1422.68 2003.36,1423.76 2000.60,1423.27 C1997.53,1422.68 1992.53,1419.81 1990.37,1417.12 C1987.53,1413.52 1983.70,1404.45 1982.84,1400.34 C1981.99,1396.21 1981.99,1387.75 1982.84,1383.26 C1983.72,1378.71 1987.13,1369.44 1989.57,1365.06 C1992.11,1360.53 1998.32,1352.61 2002.03,1349.37 C2005.93,1345.99 2014.12,1341.43 2018.30,1340.57 C2020.54,1340.13 2024.12,1340.00 2028.01,1340.48 C2032.31,1341.03 2037.76,1342.82 2040.28,1344.38 C2044.58,1347.11 2054.04,1355.95 2056.57,1359.54 C2057.90,1361.45 2061.91,1368.25 2063.18,1371.13 C2064.50,1374.15 2066.58,1380.56 2066.92,1383.43 C2067.24,1386.40 2066.54,1391.69 2065.50,1396.33 C2064.30,1401.45 2060.05,1409.81 2057.23,1412.85 C2055.83,1414.34 2049.62,1419.45 2049.10,1419.82 C2046.21,1421.83 2041.43,1423.51 2038.54,1423.56 C2035.50,1423.57 2028.28,1421.95 2025.49,1420.40 C2022.74,1418.81 2018.52,1413.97 2016.93,1410.94 C2015.37,1407.84 2013.33,1401.01 2013.08,1396.52 C2012.98,1394.24 2013.54,1387.25 2014.12,1384.19 C2014.86,1380.44 2016.76,1374.28 2018.34,1371.39 C2020.96,1366.71 2032.79,1354.67 2037.40,1351.34 C2040.85,1348.90 2045.89,1347.00 2049.62,1346.65 C2051.58,1346.49 2057.73,1346.69 2060.84,1347.19 C2067.10,1348.23 2079.98,1353.54 2086.01,1357.13 C2091.11,1360.19 2098.06,1366.63 2102.88,1373.00 C2106.48,1377.79 2110.78,1386.97 2111.55,1391.33 C2111.91,1393.49 2112.21,1401.12 2112.13,1402.43 C2111.86,1406.04 2109.86,1411.14 2107.82,1413.90 C2105.44,1417.04 2099.36,1422.91 2096.67,1424.87 C2094.06,1426.74 2089.42,1428.13 2086.63,1427.93 C2083.53,1427.67 2076.49,1425.22 2074.07,1423.01 C2071.87,1420.95 2069.32,1416.86 2067.89,1413.55 C2066.09,1409.32 2064.95,1403.59 2065.30,1399.78 C2065.90,1393.99 2070.87,1380.16 2073.83,1375.32 C2076.94,1370.29 2085.92,1361.08 2088.25,1359.46 C2090.35,1358.04 2092.78,1356.72 2094.23,1356.33 C2098.09,1355.34 2108.06,1357.36 2113.71,1359.32 C2117.64,1360.72 2128.76,1367.42 2133.92,1372.12 C2138.88,1376.70 2146.61,1386.69 2149.80,1392.72 C2151.37,1395.73 2154.02,1402.44 2154.53,1404.53 C2155.48,1408.71 2155.27,1415.44 2154.27,1418.83 C2153.28,1422.03 2149.62,1428.29 2147.14,1430.73 C2144.40,1433.37 2137.81,1437.81 2134.86,1439.03 C2132.29,1440.05 2127.85,1440.41 2125.09,1439.47 C2121.99,1438.34 2116.49,1434.76 2114.46,1432.73 C2110.92,1429.09 2108.71,1420.70 2108.75,1418.04 C2108.77,1416.98 2108.98,1414.20 2109.06,1413.14" fill="none" stroke="rgb(255, 255, 255)" stroke-width="60.00" stroke-opacity="1.00" stroke-linejoin="round"/>
</g>
</svg>
