<?xml version="1.0" encoding="UTF-8" standalone="no"?>
<!DOCTYPE svg PUBLIC "-//W3C//DTD SVG 1.1//EN" "http://www.w3.org/Graphics/SVG/1.1/DTD/svg11.dtd">
<svg width="1382.40" height="777.60" viewBox="0.00 0.00 3840.00 2160.00" xmlns="http://www.w3.org/2000/svg" xmlns:xlink="http://www.w3.org/1999/xlink">
<g stroke-linecap="round" id="Layerx">
<path d="M1956.08,1064.98 C1958.43,1063.44 1964.09,1060.85 1966.96,1060.87 C1968.58,1060.91 1971.80,1062.42 1973.55,1063.76 C1976.13,1065.85 1979.48,1071.20 1980.28,1075.11 C1980.88,1078.22 1981.58,1086.59 1981.26,1089.31 C1981.06,1090.88 1979.28,1097.70 1978.62,1099.54 C1977.55,1102.41 1973.00,1110.69 1971.12,1113.57 C1969.85,1115.48 1967.34,1118.39 1965.78,1119.69 C1964.26,1120.91 1960.90,1122.46 1959.04,1122.85 C1956.51,1123.34 1949.04,1122.28 1946.22,1120.84 C1943.27,1119.27 1937.64,1113.60 1936.10,1110.19 C1934.98,1107.62 1934.19,1101.33 1934.22,1097.23 C1934.28,1093.73 1935.54,1087.00 1936.78,1083.39 C1937.99,1080.04 1941.91,1074.84 1944.44,1073.26 C1945.53,1072.61 1948.71,1071.48 1950.03,1071.27 C1951.61,1071.05 1954.28,1071.37 1955.95,1071.98 C1957.83,1072.72 1960.15,1074.57 1961.26,1076.23 C1962.58,1078.30 1964.60,1086.94 1964.78,1089.53 C1964.96,1092.48 1963.69,1097.91 1962.95,1100.27 C1961.99,1103.16 1959.26,1107.38 1956.44,1110.64 C1953.55,1113.93 1949.09,1117.23 1946.48,1117.58 C1945.13,1117.72 1942.98,1117.33 1941.75,1116.71 C1940.50,1116.04 1938.43,1114.15 1937.63,1112.88 C1935.87,1109.95 1934.25,1101.80 1934.66,1098.13 C1935.06,1094.97 1937.08,1087.96 1938.82,1084.94 C1939.61,1083.63 1942.09,1080.49 1943.09,1079.77 C1944.98,1078.48 1948.54,1077.70 1950.51,1078.12 C1951.54,1078.38 1954.25,1080.36 1955.09,1081.25 C1957.07,1083.49 1958.79,1090.34 1958.67,1093.72 C1958.54,1096.25 1956.19,1103.69 1954.63,1105.60 C1953.53,1106.89 1951.23,1108.07 1949.68,1108.24 C1947.93,1108.37 1945.30,1108.09 1943.99,1107.53 C1942.72,1106.96 1939.83,1104.68 1938.75,1103.40 C1937.58,1101.95 1936.20,1098.87 1935.86,1096.92 C1935.26,1093.12 1936.35,1085.50 1938.01,1081.86 C1938.87,1080.04 1940.76,1077.48 1942.16,1076.23 C1943.45,1075.11 1946.55,1073.25 1948.00,1072.75 C1949.46,1072.27 1953.18,1071.84 1954.99,1071.90 C1957.00,1072.01 1960.25,1072.80 1962.26,1073.68 C1964.35,1074.63 1967.47,1076.73 1968.83,1078.10 C1970.61,1079.94 1973.41,1086.12 1973.73,1089.01 C1974.01,1091.83 1972.66,1099.23 1971.62,1101.65 C1970.08,1105.13 1964.96,1111.09 1961.97,1112.71 C1960.14,1113.66 1957.14,1114.32 1955.20,1114.20 C1952.69,1113.98 1945.00,1110.53 1942.19,1108.28 C1939.43,1106.03 1934.00,1098.98 1932.55,1096.01 C1931.17,1093.11 1930.07,1086.69 1930.28,1083.80 C1930.50,1081.09 1932.73,1073.70 1933.89,1071.54 C1934.76,1069.98 1937.36,1066.52 1938.53,1065.51 C1939.97,1064.31 1942.88,1062.92 1944.64,1062.53 C1947.81,1061.89 1955.21,1061.91 1959.02,1062.71 C1963.45,1063.69 1969.85,1066.50 1972.16,1068.80 C1974.35,1071.09 1976.90,1077.24 1977.16,1081.16 C1977.34,1084.34 1976.62,1093.58 1975.69,1096.35 C1975.08,1098.11 1972.05,1103.73 1970.73,1105.59 C1969.21,1107.71 1962.60,1114.32 1960.49,1115.65 C1958.84,1116.65 1955.19,1117.78 1953.17,1117.93 C1950.14,1118.09 1940.65,1116.45 1937.88,1115.18 C1935.29,1113.96 1930.92,1109.62 1928.61,1106.18 C1926.68,1103.26 1923.88,1096.44 1923.07,1093.63 C1922.41,1091.27 1921.58,1085.20 1921.99,1081.91 C1922.42,1078.66 1924.91,1071.75 1925.91,1069.78 C1926.76,1068.11 1931.45,1061.06 1933.02,1059.63 C1935.30,1057.58 1943.68,1053.40 1945.94,1052.81 C1949.37,1051.94 1956.02,1052.47 1959.94,1053.50 C1964.00,1054.59 1969.13,1056.57 1971.57,1058.32 C1973.77,1059.94 1978.90,1064.86 1980.40,1066.71 C1983.93,1071.06 1989.97,1082.93 1991.51,1088.48 C1992.28,1091.31 1993.02,1097.21 1992.99,1099.68 C1992.94,1102.21 1991.98,1108.14 1991.03,1111.09 C1989.07,1117.00 1983.80,1124.70 1982.14,1126.66 C1980.41,1128.61 1975.52,1130.58 1971.38,1131.51 C1968.12,1132.22 1960.60,1133.24 1957.88,1132.78 C1956.56,1132.54 1949.29,1129.23 1946.31,1127.66 C1943.08,1125.95 1936.21,1120.96 1933.69,1118.70 C1931.17,1116.41 1925.80,1110.33 1923.69,1107.32 C1921.36,1103.96 1918.31,1098.44 1916.89,1095.04 C1915.64,1091.97 1914.11,1085.54 1913.92,1082.96 C1913.76,1080.35 1914.48,1074.33 1915.46,1071.66 C1916.65,1068.52 1919.11,1064.22 1921.20,1061.81 C1923.21,1059.50 1929.53,1053.69 1930.54,1052.93 C1933.33,1050.88 1939.98,1048.96 1944.09,1049.01 C1946.49,1049.06 1955.94,1050.09 1959.07,1050.82 C1961.30,1051.34 1967.55,1053.52 1970.41,1054.96 C1973.62,1056.60 1977.95,1059.64 1982.11,1062.92 C1985.57,1065.71 1990.24,1070.59 1992.21,1073.65 C1993.89,1076.28 1997.42,1084.03 1998.03,1085.76 C1999.32,1089.50 1999.94,1095.40 1999.61,1098.59 C1999.17,1102.44 1997.66,1107.46 1995.94,1110.93 C1994.46,1113.83 1990.21,1119.61 1988.17,1121.63 C1985.91,1123.82 1979.81,1127.99 1976.30,1129.48 C1972.46,1131.08 1966.30,1132.54 1962.80,1132.86 C1959.41,1133.13 1953.82,1132.63 1950.37,1131.73 C1947.01,1130.84 1941.55,1128.66 1938.37,1126.95 C1935.08,1125.14 1930.00,1121.48 1926.98,1118.55 C1924.26,1115.88 1919.66,1109.84 1917.90,1106.98 C1916.27,1104.29 1913.17,1097.86 1912.17,1094.77 C1911.07,1091.30 1910.12,1085.84 1910.01,1082.36 C1909.93,1079.29 1910.74,1073.05 1911.41,1070.58 C1912.09,1068.18 1914.52,1062.79 1916.13,1060.55 C1917.90,1058.09 1921.79,1053.64 1923.43,1052.33 C1925.66,1050.57 1932.86,1046.70 1934.89,1045.81 C1938.40,1044.29 1945.04,1043.00 1949.21,1043.31 C1953.06,1043.62 1959.03,1044.85 1961.59,1046.04 C1967.49,1048.88 1979.57,1058.47 1983.26,1063.02 C1985.62,1065.97 1989.30,1072.60 1990.37,1075.94 C1991.52,1079.67 1992.18,1085.79 1991.88,1089.77 C1991.59,1093.27 1989.62,1100.65 1988.31,1103.79 C1987.02,1106.80 1982.89,1113.96 1980.56,1117.06 C1977.95,1120.50 1973.38,1125.38 1970.31,1128.01 C1967.56,1130.34 1961.38,1134.27 1958.74,1135.54 C1955.90,1136.87 1949.54,1138.81 1946.24,1139.08 C1942.66,1139.33 1936.97,1138.53 1933.45,1137.47 C1930.12,1136.44 1924.90,1134.16 1921.90,1132.43 C1918.74,1130.58 1914.36,1126.98 1912.22,1124.20 C1910.26,1121.60 1907.52,1115.45 1906.61,1112.20 C1905.78,1109.16 1904.44,1101.02 1904.27,1097.06 C1904.09,1092.60 1904.60,1086.11 1905.43,1082.14 C1906.76,1075.92 1912.53,1062.49 1915.88,1057.24 C1919.56,1051.52 1928.44,1041.74 1931.94,1039.59 C1934.74,1037.93 1940.79,1037.17 1945.90,1037.40 C1949.97,1037.61 1956.13,1038.58 1959.00,1039.45 C1965.22,1041.38 1976.23,1047.89 1982.34,1052.78 C1985.33,1055.19 1992.27,1061.93 1992.97,1062.66 C1995.32,1065.13 1998.34,1069.19 2000.32,1072.78 C2002.85,1077.48 2004.82,1083.71 2004.85,1087.67 C2004.83,1090.91 2003.38,1099.76 2002.86,1101.71 C2001.73,1105.84 1998.44,1112.07 1996.45,1114.97 C1994.01,1118.49 1990.21,1123.32 1987.57,1125.97 C1984.73,1128.79 1979.23,1133.32 1976.07,1135.30 C1969.56,1139.30 1955.20,1144.71 1949.02,1145.61 C1945.05,1146.17 1938.63,1146.07 1934.85,1145.43 C1931.61,1144.86 1924.87,1142.56 1922.54,1141.37 C1920.62,1140.37 1914.65,1136.19 1912.80,1134.49 C1910.67,1132.47 1907.22,1127.13 1905.51,1123.52 C1903.65,1119.50 1902.43,1111.82 1902.63,1107.32 C1903.05,1099.04 1905.52,1085.36 1908.05,1078.26 C1910.11,1072.57 1917.93,1059.73 1922.93,1053.49 C1928.00,1047.20 1937.45,1038.42 1942.65,1035.31 C1945.01,1033.91 1950.69,1031.32 1953.57,1030.47 C1956.85,1029.54 1962.33,1028.78 1965.99,1028.75 C1969.28,1028.75 1976.39,1029.72 1979.29,1030.50 C1982.16,1031.29 1988.92,1034.11 1991.94,1035.81 C1995.26,1037.72 2000.40,1041.33 2003.31,1043.81 C2005.94,1046.07 2010.99,1051.58 2012.86,1054.13 C2014.78,1056.78 2018.67,1063.59 2020.03,1066.97 C2021.58,1070.87 2023.05,1076.88 2023.32,1080.53 C2023.54,1083.89 2022.60,1091.18 2021.55,1094.88 C2019.86,1100.70 2013.08,1114.31 2009.04,1119.88 C2005.07,1125.30 1995.48,1134.25 1990.01,1137.76 C1984.50,1141.26 1972.90,1145.73 1966.59,1146.63 C1960.17,1147.50 1945.16,1146.80 1938.32,1145.41 C1931.93,1144.09 1919.35,1139.04 1913.00,1134.98 C1906.87,1131.02 1896.78,1122.22 1893.41,1117.12 C1891.78,1114.61 1889.44,1109.22 1888.65,1106.64 C1887.87,1104.06 1886.69,1097.92 1886.54,1094.63 C1886.30,1088.62 1888.53,1075.40 1890.50,1069.07 C1892.49,1062.73 1897.86,1051.98 1901.53,1046.72 C1906.10,1040.27 1911.76,1033.23 1918.59,1027.04 C1922.16,1023.85 1928.14,1019.03 1930.39,1017.58 C1934.40,1015.06 1940.82,1012.84 1944.95,1012.29 C1947.74,1011.94 1954.22,1011.89 1959.27,1012.09 C1963.03,1012.26 1969.33,1013.46 1972.95,1014.75 C1978.39,1016.74 1989.17,1022.64 1994.78,1026.65 C2000.00,1030.41 2009.21,1038.77 2013.02,1043.23 C2018.31,1049.46 2025.01,1061.20 2027.06,1066.67 C2029.56,1073.44 2032.59,1087.32 2032.89,1093.29 C2033.07,1097.38 2032.46,1104.27 2031.56,1108.38 C2030.19,1114.44 2024.64,1128.49 2020.93,1135.08 C2017.78,1140.64 2009.76,1150.35 2004.62,1154.79 C2000.23,1158.55 1989.75,1164.92 1983.37,1167.33 C1977.71,1169.44 1962.91,1172.37 1955.11,1172.81 C1948.64,1173.15 1935.84,1171.76 1928.73,1169.94 C1922.62,1168.35 1910.54,1163.57 1904.49,1159.85 C1898.98,1156.43 1887.32,1145.88 1882.39,1139.58 C1878.20,1134.17 1871.42,1120.68 1868.93,1113.16 C1867.04,1107.36 1864.64,1093.72 1864.77,1086.00 C1864.85,1082.57 1865.72,1074.93 1866.60,1071.27 C1868.22,1064.72 1874.08,1052.27 1877.65,1046.55 C1881.57,1040.30 1890.74,1029.11 1896.52,1023.82 C1902.15,1018.68 1914.09,1010.57 1920.84,1007.21 C1924.28,1005.51 1931.90,1002.61 1934.96,1001.81 C1938.06,1001.01 1945.54,1000.02 1949.08,999.99 C1956.38,999.96 1969.55,1002.22 1976.36,1004.51 C1982.30,1006.54 1996.99,1013.57 2003.82,1017.89 C2009.63,1021.60 2020.02,1030.79 2025.23,1036.64 C2029.48,1041.44 2037.24,1051.95 2040.94,1058.37 C2044.31,1064.26 2049.74,1077.31 2051.05,1084.00 C2051.69,1087.38 2051.93,1094.06 2051.68,1097.81 C2051.22,1103.99 2047.51,1117.15 2044.47,1122.88 C2041.78,1127.88 2033.25,1137.92 2027.49,1143.25 C2022.37,1147.97 2010.16,1157.19 2004.74,1160.36 C1998.54,1163.96 1987.37,1168.78 1980.37,1170.91 C1974.58,1172.65 1961.22,1174.94 1954.50,1175.17 C1947.19,1175.39 1932.75,1173.75 1925.72,1172.16 C1919.15,1170.66 1904.51,1165.66 1897.62,1161.86 C1891.41,1158.40 1881.02,1149.39 1876.15,1143.68 C1871.54,1138.23 1863.17,1125.53 1860.16,1119.33 C1857.32,1113.40 1853.28,1100.55 1852.19,1093.96 C1851.59,1090.17 1851.34,1082.11 1851.69,1078.34 C1852.27,1072.47 1855.68,1060.37 1858.57,1053.24 C1860.93,1047.49 1867.22,1037.71 1871.89,1031.47 C1876.61,1025.19 1885.69,1015.87 1892.81,1009.66 C1899.67,1003.81 1906.61,999.43 1913.87,995.83 C1920.29,992.74 1933.71,988.61 1940.77,988.08 C1947.79,987.60 1963.74,989.79 1970.36,991.81 C1976.74,993.79 1987.96,998.86 1993.12,1001.97 C1999.20,1005.65 2009.97,1014.00 2014.47,1018.38 C2019.86,1023.64 2028.55,1034.32 2031.56,1039.46 C2035.41,1046.11 2040.41,1058.14 2042.38,1064.83 C2044.49,1072.06 2047.92,1087.58 2047.84,1095.02 C2047.76,1099.70 2044.63,1117.57 2042.87,1123.81 C2041.32,1129.26 2036.36,1140.13 2032.41,1145.37 C2028.96,1149.88 2017.95,1160.24 2011.18,1165.32 C2005.75,1169.37 1996.03,1174.63 1989.44,1176.68 C1984.08,1178.33 1969.49,1181.21 1961.98,1181.89 C1953.66,1182.62 1939.79,1181.76 1932.46,1180.35 C1926.54,1179.20 1912.35,1174.99 1905.53,1172.24 C1899.27,1169.70 1887.13,1162.99 1882.17,1159.26 C1876.35,1154.87 1865.55,1144.49 1861.13,1138.62 C1857.11,1133.24 1851.34,1121.63 1849.16,1115.15 C1846.43,1106.95 1843.91,1092.20 1843.82,1084.63 C1843.76,1077.14 1846.33,1062.45 1849.02,1055.62 C1851.55,1049.29 1859.05,1036.58 1863.28,1030.67 C1867.89,1024.36 1875.53,1015.37 1879.86,1011.26 C1884.27,1007.11 1894.65,999.32 1900.11,996.09 C1906.30,992.45 1918.99,987.39 1927.40,985.41 C1933.78,983.92 1946.38,982.38 1953.07,982.44 C1960.38,982.53 1976.99,984.63 1984.22,986.38 C1991.16,988.08 2003.68,993.07 2010.06,996.60 C2016.55,1000.21 2028.85,1008.85 2033.77,1013.30 C2038.53,1017.64 2045.97,1027.07 2049.21,1032.75 C2052.46,1038.50 2058.01,1051.63 2059.60,1057.36 C2060.60,1061.03 2061.86,1068.48 2062.02,1071.97 C2062.29,1078.68 2060.23,1092.69 2058.57,1098.13 C2057.45,1101.77 2050.03,1120.88 2048.37,1124.51 C2045.17,1131.47 2037.79,1144.23 2032.96,1151.11 C2027.89,1158.19 2018.90,1168.21 2013.35,1172.00 C2007.88,1175.69 1993.49,1182.60 1985.90,1185.97 C1976.94,1189.76 1967.06,1192.84 1960.40,1193.71 C1952.77,1194.69 1938.03,1194.92 1931.63,1194.09 C1924.34,1193.12 1912.07,1189.03 1905.68,1185.77 C1900.06,1182.88 1888.98,1174.73 1884.30,1169.65 C1879.46,1164.36 1871.93,1153.56 1868.56,1147.96 C1864.87,1141.77 1859.43,1129.56 1856.76,1122.56 C1853.94,1115.13 1851.02,1102.37 1849.74,1092.98 C1848.63,1084.08 1848.85,1074.07 1849.86,1067.26 C1850.87,1060.73 1856.45,1046.90 1860.16,1039.87 C1863.67,1033.27 1871.67,1020.78 1875.85,1015.46 C1880.22,1009.91 1890.37,999.45 1896.54,994.06 C1902.54,988.83 1913.97,980.55 1919.16,978.46 C1923.57,976.71 1938.17,972.99 1945.46,972.23 C1952.65,971.52 1968.08,972.49 1975.00,973.62 C1983.03,974.95 1996.19,978.44 2002.23,981.17 C2008.02,983.81 2019.54,991.67 2025.21,996.70 C2030.61,1001.52 2040.01,1012.09 2043.56,1017.38 C2047.16,1022.78 2053.35,1035.55 2056.03,1043.01 C2058.70,1050.52 2061.91,1063.97 2062.61,1070.61 C2063.20,1076.42 2063.09,1090.09 2062.41,1096.08 C2061.61,1102.94 2058.21,1116.96 2055.47,1124.64 C2052.67,1132.43 2046.40,1145.25 2042.74,1150.52 C2039.10,1155.70 2029.53,1165.65 2023.61,1170.47 C2017.72,1175.26 2005.87,1182.78 1999.73,1185.63 C1993.91,1188.31 1981.07,1192.37 1974.65,1193.58 C1968.14,1194.79 1954.23,1195.66 1947.85,1195.17 C1940.72,1194.59 1928.18,1191.55 1921.14,1188.97 C1915.27,1186.80 1902.31,1180.21 1896.85,1176.20 C1890.91,1171.80 1881.10,1161.33 1876.67,1155.06 C1872.45,1149.04 1865.54,1137.14 1862.95,1132.02 C1860.13,1126.39 1854.38,1111.71 1852.89,1106.84 C1851.79,1103.17 1850.52,1095.89 1850.37,1091.71 C1850.08,1083.05 1851.80,1071.61 1853.95,1065.56 C1856.25,1059.17 1864.07,1044.30 1866.00,1041.13 C1869.92,1034.75 1877.64,1025.21 1885.44,1016.50 C1890.77,1010.64 1899.15,1002.94 1905.04,998.38 C1911.33,993.60 1923.70,985.91 1929.28,983.23 C1933.04,981.46 1939.03,979.58 1943.11,978.91 C1948.71,978.02 1965.41,977.33 1972.16,977.59 C1982.64,978.16 1994.01,979.63 2001.56,982.10 C2011.78,985.58 2023.51,990.34 2028.92,993.73 C2033.38,996.55 2043.39,1004.71 2051.96,1012.17 C2060.32,1019.68 2067.96,1027.32 2072.15,1033.40 C2076.11,1039.20 2082.56,1051.48 2084.69,1057.45 C2087.04,1064.16 2089.44,1077.61 2089.83,1085.04 C2090.17,1091.81 2088.84,1106.55 2087.11,1113.63 C2085.40,1120.53 2080.99,1132.75 2077.80,1139.39 C2074.57,1146.06 2066.08,1158.95 2061.43,1164.27 C2056.17,1170.25 2045.77,1179.69 2039.51,1184.17 C2033.87,1188.18 2020.21,1195.12 2012.58,1197.60 C2004.44,1200.21 1988.54,1203.22 1981.71,1203.73 C1975.13,1204.19 1961.80,1203.34 1954.78,1201.80 C1948.31,1200.35 1933.78,1195.15 1927.67,1192.18 C1920.18,1188.52 1908.49,1181.03 1902.88,1175.92 C1898.55,1171.96 1888.81,1160.58 1884.99,1154.58 C1881.82,1149.58 1874.17,1135.67 1871.59,1128.81 C1869.63,1123.52 1865.16,1106.03 1864.87,1101.64 C1864.60,1097.31 1865.85,1081.26 1867.56,1074.02 C1869.29,1066.84 1874.47,1054.28 1878.11,1048.12 C1882.32,1041.14 1888.47,1032.48 1894.80,1025.35 C1901.53,1017.95 1911.02,1009.17 1919.08,1002.86 C1923.40,999.56 1928.33,996.09 1931.01,994.72 C1936.46,992.01 1949.23,988.84 1957.11,987.72 C1964.55,986.69 1978.85,985.99 1985.13,986.88 C1990.34,987.64 2003.95,991.27 2010.00,993.79 C2016.43,996.50 2029.36,1004.49 2035.26,1009.32 C2041.18,1014.20 2049.98,1024.32 2053.56,1030.22 C2057.07,1036.08 2063.46,1050.80 2065.71,1058.46 C2068.00,1066.31 2069.83,1080.31 2069.43,1087.89 C2069.07,1094.33 2066.01,1111.57 2064.03,1118.36 C2061.55,1126.59 2056.84,1138.71 2052.96,1146.19 C2049.04,1153.73 2041.24,1166.07 2036.78,1172.14 C2032.39,1178.08 2022.02,1188.88 2016.63,1192.94 C2010.87,1197.24 1998.44,1203.50 1992.49,1205.52 C1988.82,1206.74 1980.23,1208.80 1977.01,1209.23 C1973.84,1209.64 1966.38,1209.68 1963.87,1209.36 C1960.33,1208.87 1952.41,1206.52 1948.95,1204.87 C1945.09,1202.99 1940.12,1199.51 1937.36,1196.95 C1933.03,1192.88 1924.79,1181.14 1921.64,1175.23 C1917.93,1168.23 1912.89,1155.97 1910.78,1148.73 C1908.95,1142.38 1906.58,1127.67 1906.25,1119.90 C1905.92,1111.38 1907.05,1095.73 1908.21,1089.95 C1909.00,1086.10 1911.45,1078.33 1912.82,1075.29 C1915.72,1068.94 1924.09,1057.69 1929.90,1051.48 C1934.43,1046.68 1946.62,1036.06 1952.51,1032.04 C1958.95,1027.68 1972.14,1021.53 1979.15,1019.53 C1983.15,1018.41 1989.38,1017.30 1993.14,1017.03 C1996.97,1016.79 2002.87,1017.25 2006.34,1018.07 C2009.74,1018.90 2015.00,1020.95 2018.06,1022.62 C2021.24,1024.40 2026.31,1028.18 2029.23,1031.15 C2033.30,1035.34 2040.32,1046.58 2043.14,1053.12 C2045.65,1058.99 2049.29,1072.73 2050.52,1080.48 C2051.60,1087.44 2052.53,1102.60 2052.13,1108.95 C2051.57,1117.32 2047.86,1132.09 2044.96,1138.57 C2041.83,1145.49 2034.21,1158.16 2029.61,1163.49 C2027.53,1165.88 2022.23,1170.56 2020.19,1171.88 C2017.00,1173.89 2010.07,1176.58 2006.82,1177.20 C2003.55,1177.79 1997.49,1178.29 1994.34,1178.12 C1991.25,1177.93 1984.75,1176.84 1981.30,1175.58 C1977.66,1174.21 1972.16,1170.98 1969.33,1168.76 C1964.58,1164.96 1956.13,1154.70 1952.83,1148.40 C1949.77,1142.50 1945.59,1128.77 1944.60,1122.65 C1943.40,1115.16 1943.13,1102.14 1944.49,1095.46 C1945.12,1092.42 1947.55,1085.17 1948.95,1082.19 C1952.03,1075.69 1961.39,1062.69 1966.41,1057.84 C1968.60,1055.75 1974.18,1051.51 1976.27,1050.27 C1979.19,1048.56 1986.33,1045.54 1989.71,1044.62 C1993.67,1043.58 1999.99,1042.86 2003.82,1043.03 C2009.46,1043.33 2022.63,1047.01 2029.53,1050.00 C2035.18,1052.47 2045.68,1058.88 2050.66,1063.10 C2054.95,1066.77 2063.84,1076.71 2067.93,1082.51 C2069.75,1085.11 2072.84,1090.66 2073.67,1093.03 C2075.31,1097.84 2075.80,1111.94 2075.02,1117.48 C2074.46,1121.33 2072.81,1127.71 2071.38,1131.04 C2068.48,1137.65 2059.68,1150.26 2055.34,1154.73 C2052.45,1157.68 2047.29,1161.41 2043.58,1163.22 C2037.65,1166.05 2021.59,1170.51 2014.53,1171.48 C2010.93,1171.96 2004.97,1172.09 2001.67,1171.65 C1998.18,1171.15 1992.86,1169.62 1988.94,1167.83 C1985.80,1166.37 1979.96,1162.73 1978.18,1161.06 C1975.88,1158.86 1971.64,1152.74 1969.97,1149.48 C1966.52,1142.67 1961.60,1129.94 1959.75,1122.86 C1958.80,1119.15 1957.76,1111.93 1957.56,1107.63 C1957.30,1101.43 1959.23,1086.72 1960.98,1080.79 C1962.85,1074.58 1968.95,1063.55 1974.43,1055.61 C1980.67,1046.82 1987.88,1037.94 1991.20,1034.71 C1993.41,1032.58 2000.93,1027.19 2003.70,1025.54 C2007.16,1023.50 2013.10,1021.38 2016.77,1020.67 C2022.64,1019.58 2035.02,1019.69 2042.34,1020.91 C2045.41,1021.43 2052.04,1023.16 2054.43,1024.14 C2059.66,1026.34 2071.57,1035.33 2075.66,1039.59 C2078.41,1042.49 2082.72,1047.93 2084.59,1051.12 C2088.38,1057.66 2093.42,1072.47 2094.57,1079.33 C2095.86,1087.17 2095.72,1101.91 2094.59,1109.28 C2093.31,1117.45 2089.89,1130.76 2087.22,1137.72 C2084.81,1143.92 2077.41,1156.27 2072.66,1161.57 C2069.77,1164.78 2064.53,1169.42 2060.89,1172.01 C2054.54,1176.50 2040.92,1182.91 2034.75,1184.51 C2031.21,1185.40 2025.42,1186.22 2021.27,1186.29 C2017.59,1186.33 2010.01,1185.37 2007.21,1184.57 C2003.89,1183.59 1997.60,1180.40 1994.98,1178.42 C1989.78,1174.42 1980.97,1164.37 1978.38,1159.71 C1976.69,1156.61 1974.28,1150.49 1973.63,1147.41 C1972.79,1143.41 1970.36,1121.34 1970.12,1117.27 C1969.64,1108.82 1970.29,1095.03 1971.81,1087.12 C1973.28,1079.51 1976.49,1067.34 1979.47,1057.91 C1981.89,1050.77 1987.26,1038.03 1991.61,1031.47 C1993.82,1028.18 1998.84,1021.44 2001.22,1018.28 C2003.93,1014.78 2008.08,1010.55 2010.65,1008.93 C2013.02,1007.48 2018.67,1005.16 2021.80,1004.46 C2028.66,1002.99 2041.97,1002.37 2047.52,1003.54 C2051.11,1004.32 2056.90,1006.57 2060.49,1008.55 C2063.30,1010.12 2068.31,1013.82 2069.92,1015.54 C2073.84,1019.80 2081.37,1035.39 2083.68,1041.99 C2086.41,1049.87 2089.73,1062.50 2090.27,1070.33 C2090.66,1076.30 2090.46,1093.26 2089.18,1100.60 C2088.23,1105.95 2083.29,1122.57 2080.97,1129.63 C2078.00,1138.22 2073.80,1149.07 2069.78,1157.47 C2065.32,1166.53 2062.79,1170.92 2056.80,1178.07 C2053.66,1181.74 2048.96,1186.15 2045.81,1188.40 C2042.86,1190.48 2037.45,1193.56 2034.15,1195.01 C2030.62,1196.54 2024.61,1198.37 2020.64,1198.98 C2016.89,1199.52 2009.01,1199.24 2005.04,1198.57 C1998.62,1197.45 1984.90,1192.36 1979.40,1188.91 C1976.84,1187.28 1971.32,1182.71 1969.32,1180.61 C1964.99,1176.01 1957.97,1164.17 1955.73,1157.61 C1953.39,1150.61 1951.45,1136.31 1951.30,1127.60 C1951.19,1120.38 1952.69,1104.38 1954.29,1097.49 C1955.98,1090.32 1960.67,1077.68 1963.39,1072.17 C1967.23,1064.41 1975.91,1051.58 1981.15,1046.15 C1986.43,1040.73 1999.47,1031.12 2005.73,1027.91 C2008.39,1026.56 2014.91,1024.03 2017.18,1023.43 C2020.34,1022.60 2027.91,1021.60 2031.32,1021.60 C2035.42,1021.62 2041.45,1022.63 2045.09,1023.94 C2048.39,1025.16 2054.52,1028.64 2057.19,1030.49 C2060.03,1032.47 2065.90,1037.69 2068.27,1040.26 C2072.41,1044.79 2079.74,1056.82 2082.52,1062.97 C2085.56,1069.76 2090.17,1084.11 2091.52,1091.31 C2093.01,1099.39 2094.41,1115.72 2094.15,1122.00 C2093.80,1129.58 2091.66,1141.75 2089.25,1149.74 C2087.18,1156.53 2080.95,1170.62 2077.28,1176.41 C2073.47,1182.37 2064.98,1192.40 2060.60,1196.58 C2054.71,1202.17 2042.58,1211.13 2036.34,1214.54 C2033.65,1215.99 2026.75,1219.06 2024.39,1219.85 C2020.79,1221.04 2012.94,1222.62 2009.39,1222.73 C2005.31,1222.82 1999.01,1221.76 1995.52,1220.35 C1992.35,1219.05 1986.84,1215.34 1984.36,1213.27 C1981.83,1211.15 1977.09,1206.03 1974.96,1203.28 C1972.85,1200.53 1969.43,1194.68 1967.94,1191.47 C1965.25,1185.59 1961.61,1171.30 1960.40,1162.88 C1959.36,1155.50 1958.43,1139.54 1958.67,1133.13 C1958.97,1125.79 1960.92,1111.99 1962.95,1104.35 C1965.05,1096.59 1970.80,1082.79 1974.91,1075.97 C1977.88,1071.07 1986.44,1059.76 1991.36,1054.49 C1996.37,1049.15 2006.63,1040.98 2012.46,1037.93 C2018.24,1034.94 2032.18,1030.48 2039.15,1029.41 C2043.02,1028.84 2048.87,1028.54 2052.29,1028.75 C2055.84,1029.00 2061.87,1030.11 2065.80,1031.38 C2069.43,1032.58 2076.72,1036.26 2079.52,1038.15 C2082.38,1040.11 2088.39,1045.43 2090.53,1047.84 C2095.00,1052.93 2101.42,1063.82 2103.77,1069.82 C2106.43,1076.70 2109.58,1088.87 2110.43,1095.92 C2111.19,1102.46 2110.44,1117.79 2109.10,1125.15 C2107.62,1133.10 2103.10,1146.90 2100.18,1153.29 C2097.54,1159.02 2090.90,1170.53 2085.73,1178.39 C2081.54,1184.59 2072.37,1195.96 2068.21,1200.48 C2063.58,1205.48 2051.10,1216.88 2045.69,1221.10 C2039.50,1225.91 2028.07,1233.44 2021.59,1236.40 C2014.96,1239.38 2001.21,1242.84 1993.98,1243.59 C1986.72,1244.32 1972.73,1242.98 1965.60,1241.05 C1958.39,1239.06 1945.30,1233.15 1940.29,1229.71 C1935.22,1226.19 1925.12,1216.05 1920.73,1209.85 C1916.79,1204.23 1910.97,1192.22 1909.24,1186.29 C1907.31,1179.60 1905.16,1166.81 1904.49,1159.13 C1903.95,1152.92 1903.85,1136.77 1904.45,1130.27 C1905.05,1123.96 1908.18,1107.74 1909.94,1101.33 C1912.90,1091.20 1917.01,1079.86 1919.84,1075.01 C1923.17,1069.36 1933.97,1055.98 1938.19,1051.39 C1943.75,1045.37 1954.76,1035.20 1960.32,1031.30 C1965.96,1027.38 1978.06,1021.44 1984.61,1019.24 C1991.28,1017.03 2004.93,1015.17 2012.61,1015.66 C2020.31,1016.20 2035.32,1019.76 2041.53,1022.56 C2047.60,1025.33 2058.06,1032.70 2063.97,1037.94 C2069.26,1042.73 2078.56,1052.72 2081.96,1057.04 C2086.66,1063.04 2093.53,1074.61 2096.20,1080.88 C2098.94,1087.35 2102.13,1099.79 2102.56,1106.17 C2102.99,1113.04 2101.14,1126.95 2098.79,1133.98 C2096.27,1141.37 2088.99,1154.12 2084.14,1160.21 C2080.14,1165.18 2068.29,1176.75 2062.79,1181.32 C2055.94,1186.90 2045.04,1194.77 2038.73,1198.47 C2032.33,1202.21 2019.64,1208.05 2013.26,1210.21 C2007.42,1212.17 1993.37,1215.31 1985.37,1215.88 C1978.52,1216.35 1965.24,1214.94 1958.51,1212.85 C1955.32,1211.84 1948.12,1208.35 1945.38,1206.36 C1942.36,1204.12 1937.09,1198.30 1935.19,1195.17 C1931.43,1188.87 1926.47,1174.80 1925.41,1168.25 C1924.26,1160.93 1924.48,1146.78 1925.50,1139.73 C1926.72,1131.46 1930.58,1118.06 1932.94,1112.42 C1935.47,1106.44 1943.08,1092.54 1947.65,1085.89 C1952.33,1079.11 1962.26,1068.62 1968.13,1064.41 C1973.83,1060.36 1987.81,1053.45 1995.08,1051.03 C2002.21,1048.68 2015.28,1046.56 2021.81,1046.50 C2028.22,1046.46 2041.12,1047.79 2047.26,1049.48 C2053.68,1051.29 2066.83,1057.97 2072.64,1062.24 C2075.83,1064.61 2080.18,1068.58 2082.39,1071.14 C2084.68,1073.83 2087.89,1078.68 2089.74,1082.47 C2091.36,1085.84 2093.77,1093.31 2094.33,1096.60 C2094.72,1098.96 2094.97,1105.90 2094.72,1108.87 C2094.11,1115.58 2090.30,1129.26 2087.53,1135.82 C2085.14,1141.41 2077.91,1153.40 2073.71,1158.87 C2069.16,1164.76 2059.20,1175.48 2054.57,1179.67 C2049.21,1184.49 2037.83,1192.80 2030.54,1196.92 C2023.98,1200.62 2010.17,1206.90 2004.65,1208.67 C2000.70,1209.91 1994.80,1210.97 1991.00,1211.14 C1987.81,1211.26 1980.02,1210.75 1977.37,1210.27 C1974.04,1209.64 1967.42,1207.29 1964.60,1205.46 C1961.59,1203.46 1957.18,1199.11 1955.16,1196.16 C1953.36,1193.46 1951.18,1187.35 1950.71,1184.37 C1950.33,1181.78 1950.30,1174.20 1950.70,1170.53 C1951.51,1163.45 1955.76,1150.64 1959.24,1143.91 C1962.66,1137.33 1970.96,1124.42 1974.98,1119.20 C1978.87,1114.17 1988.36,1103.95 1993.76,1099.08 C1999.66,1093.85 2010.83,1085.46 2016.83,1082.13 C2022.95,1078.78 2036.34,1074.50 2043.56,1073.79 C2047.44,1073.44 2054.74,1073.93 2057.61,1074.62 C2060.65,1075.38 2066.98,1078.25 2069.69,1080.01 C2075.26,1083.68 2084.85,1092.66 2088.17,1097.36 C2090.32,1100.45 2093.33,1106.28 2094.78,1110.13 C2097.26,1116.85 2099.82,1131.87 2100.05,1139.64 C2100.25,1146.83 2098.80,1159.12 2096.89,1165.14 C2094.50,1172.55 2087.41,1186.24 2083.48,1191.08 C2079.11,1196.40 2068.98,1204.65 2063.61,1207.81 C2057.45,1211.41 2045.68,1216.04 2039.85,1217.12 C2035.72,1217.86 2028.72,1218.14 2024.88,1217.70 C2021.24,1217.26 2013.68,1214.79 2010.78,1213.34 C2008.70,1212.28 2000.75,1206.67 2000.03,1205.76 C1999.03,1204.44 1997.96,1201.43 1997.65,1199.43 C1997.03,1195.03 1996.64,1188.23 1997.26,1185.45 C1997.86,1182.93 2005.47,1167.90 2009.79,1161.34 C2014.13,1154.79 2023.39,1143.41 2028.55,1138.27 C2033.68,1133.17 2045.60,1123.55 2051.33,1119.78 C2054.71,1117.57 2059.64,1114.78 2062.34,1113.67 C2064.97,1112.62 2070.34,1111.70 2073.18,1111.69 C2075.86,1111.70 2083.76,1112.51 2087.21,1113.35 C2090.69,1114.21 2097.21,1116.27 2098.33,1117.01 C2100.42,1118.42 2105.37,1124.78 2107.64,1128.28 C2109.85,1131.76 2111.10,1135.83 2111.43,1139.71 C2111.69,1143.15 2111.82,1150.38 2111.38,1154.38 C2110.86,1158.89 2109.38,1165.53 2107.96,1169.68 C2105.61,1176.46 2098.26,1189.57 2094.58,1194.54 C2090.51,1200.00 2081.19,1209.35 2075.16,1214.05 C2072.75,1215.91 2066.32,1220.31 2064.46,1221.39 C2061.45,1223.13 2056.07,1225.26 2053.51,1225.55 C2050.60,1225.84 2045.79,1225.43 2042.18,1224.52 C2039.42,1223.81 2030.10,1220.43 2028.50,1219.10 C2027.25,1218.03 2025.79,1215.29 2025.53,1213.68 C2025.02,1209.95 2028.44,1192.46 2030.32,1187.66 C2032.55,1182.07 2039.09,1171.49 2043.91,1165.43 C2048.58,1159.59 2058.43,1149.21 2064.18,1144.13 C2069.44,1139.50 2082.83,1129.75 2087.85,1126.75 C2091.14,1124.82 2096.98,1122.69 2099.74,1122.88 C2102.52,1123.13 2108.63,1125.77 2112.69,1128.49 C2114.28,1129.57 2117.75,1132.27 2118.59,1133.17 C2119.90,1134.63 2121.04,1136.82 2121.47,1138.61 C2122.09,1141.44 2123.03,1150.34 2123.01,1153.05 C2122.98,1155.31 2121.97,1165.11 2121.51,1167.57 C2120.99,1170.19 2119.10,1174.79 2116.84,1179.52 C2113.06,1187.19 2104.91,1198.00 2097.79,1206.28 C2091.37,1213.51 2081.77,1221.67 2079.99,1222.87 C2077.82,1224.32 2070.53,1227.17 2068.13,1227.62 C2064.66,1228.23 2057.48,1226.74 2053.57,1224.95 C2050.18,1223.35 2043.47,1217.93 2042.24,1215.32 C2040.85,1212.23 2041.11,1204.93 2041.97,1201.04 C2043.94,1192.27 2048.41,1181.18 2052.25,1175.04 C2055.67,1169.63 2064.83,1160.27 2071.84,1153.58 C2074.98,1150.63 2077.36,1148.90 2081.24,1146.53 C2085.46,1144.04 2088.36,1142.68 2091.87,1141.88 C2096.84,1140.83 2102.24,1140.24 2105.16,1140.88 C2108.90,1141.78 2115.58,1146.63 2118.07,1149.51 C2120.21,1152.02 2123.80,1159.21 2124.18,1160.75 C2124.79,1163.40 2123.70,1168.35 2122.66,1173.89 C2121.94,1177.34 2119.79,1184.08 2118.82,1186.53 C2117.56,1189.63 2113.89,1195.67 2111.53,1198.57 C2109.96,1200.48 2104.14,1206.28 2101.91,1208.26 C2099.25,1210.58 2095.37,1213.24 2091.13,1215.79 C2087.67,1217.83 2081.70,1220.61 2078.57,1221.31 C2075.73,1221.92 2068.83,1221.86 2065.82,1221.16 C2064.08,1220.73 2061.34,1219.77 2059.90,1219.06 C2058.38,1218.27 2056.25,1216.26 2055.24,1214.60 C2054.17,1212.73 2053.60,1209.15 2053.92,1206.66 C2054.26,1204.34 2057.74,1196.84 2060.18,1193.07 C2064.07,1187.10 2076.92,1173.55 2081.76,1169.40 C2083.74,1167.71 2090.25,1162.92 2093.46,1161.52 C2094.99,1160.88 2098.57,1160.05 2100.11,1159.97 C2102.21,1159.92 2104.55,1160.46 2105.97,1161.32 C2107.60,1162.39 2109.25,1164.22 2109.98,1165.86 C2110.96,1168.17 2111.48,1176.25 2110.47,1180.67 C2109.85,1183.25 2106.95,1190.03 2104.99,1193.55 C2101.32,1200.09 2093.08,1209.64 2087.89,1214.72 C2085.00,1217.54 2080.77,1221.17 2078.04,1222.85 C2075.35,1224.49 2065.85,1229.14 2064.38,1229.51 C2062.74,1229.92 2060.44,1229.92 2059.34,1229.67 C2058.66,1228.29 2058.20,1225.57 2058.48,1223.41 C2058.72,1221.67 2062.67,1213.86 2065.56,1209.73 C2068.42,1205.69 2081.14,1191.60 2085.72,1187.29 C2089.66,1183.67 2093.25,1180.92 2094.39,1180.83 C2096.17,1180.75 2099.44,1181.61 2100.23,1182.62 C2101.31,1184.06 2102.14,1186.52 2102.25,1188.51 C2102.42,1193.09 2101.76,1200.08 2100.91,1203.74 C2100.03,1207.40 2098.03,1213.82 2096.68,1217.07 C2095.25,1220.46 2091.50,1226.79 2088.80,1230.29 C2083.98,1236.49 2071.80,1248.15 2067.02,1251.49 C2064.54,1253.20 2059.15,1256.08 2056.37,1256.98 C2054.96,1257.41 2051.94,1257.93 2050.83,1257.76 C2049.23,1257.49 2046.23,1256.31 2044.41,1255.40 C2044.21,1250.36 2044.73,1246.56 2046.47,1243.00 C2049.23,1237.56 2057.81,1225.54 2063.09,1219.73 C2068.82,1213.45 2078.61,1204.60 2084.23,1200.99 C2087.47,1198.92 2093.05,1196.18 2096.11,1195.12 C2098.89,1194.19 2102.93,1194.43 2104.44,1194.68 C2105.09,1196.03 2105.79,1198.48 2105.77,1199.98 C2105.71,1202.48 2101.99,1208.96 2099.15,1211.92 C2094.01,1217.16 2082.40,1225.71 2075.29,1229.90 C2067.93,1234.14 2054.83,1239.36 2050.49,1239.67 C2049.30,1239.75 2046.68,1239.56 2044.96,1239.37 C2045.27,1237.86 2045.93,1235.67 2046.56,1234.70 C2047.77,1232.90 2054.19,1230.03 2059.97,1227.96 C2060.87,1227.64 2061.78,1227.31 2062.68,1226.99" fill="none" stroke="rgb(255, 215, 164)" stroke-width="32.50" stroke-opacity="1.00" stroke-linejoin="round"/>
<path d="M2075.15,1228.54 C2075.72,1228.10 2076.12,1227.79 2076.35,1227.59 C2078.76,1225.50 2082.10,1222.63 2086.09,1219.41 C2100.25,1208.12 2108.17,1200.52 2112.59,1195.89 C2106.00,1204.69 2097.69,1214.67 2093.69,1218.77 C2090.84,1221.68 2080.49,1230.87 2078.35,1232.66 C2081.74,1230.70 2094.30,1216.83 2099.78,1210.66 C2105.13,1204.66 2110.68,1200.04 2111.31,1200.07 C2112.22,1201.26 2109.90,1206.99 2107.00,1210.72 C2102.07,1216.92 2091.91,1226.62 2086.64,1230.90 C2080.03,1236.23 2076.80,1237.39 2075.92,1237.51 C2077.58,1234.47 2079.45,1232.56 2083.65,1228.94 C2092.32,1221.50 2097.86,1216.46 2102.42,1211.55 C2106.59,1207.04 2123.91,1184.82 2125.89,1182.75 C2121.63,1188.97 2112.54,1202.05 2109.01,1206.29 C2100.23,1216.63 2090.53,1226.97 2088.69,1228.86 C2093.74,1223.04 2100.27,1214.61 2104.48,1208.48 C2113.13,1195.42 2120.48,1182.36 2132.72,1158.45 C2134.37,1155.29 2136.42,1151.39 2137.07,1150.22 C2123.44,1177.12 2106.81,1201.64 2104.72,1205.04 C2107.94,1202.19 2114.67,1191.03 2117.52,1184.66 C2120.49,1177.98 2126.18,1165.36 2128.89,1159.42" fill="none" stroke="rgb(255, 215, 164)" stroke-width="32.50" stroke-opacity="1.00" stroke-linejoin="round"/>
<path d="M2103.70,1209.91 C2106.08,1206.85 2112.25,1198.93 2118.20,1189.08 C2128.45,1171.79 2132.15,1164.15 2141.59,1145.47 C2143.07,1142.49 2144.15,1138.25 2145.28,1132.21 C2146.88,1122.92 2147.57,1108.20 2147.62,1105.80 C2147.66,1103.77 2147.64,1096.05 2147.76,1093.42 C2148.09,1099.86 2147.11,1111.21 2145.77,1118.89 C2144.29,1125.94 2142.69,1133.74 2142.29,1136.38 C2144.26,1130.57 2145.79,1118.65 2146.62,1112.17 C2146.96,1109.31 2147.24,1089.62 2147.32,1081.42 C2147.31,1073.23 2145.89,1058.96 2145.37,1055.08 C2144.79,1050.82 2141.24,1031.61 2139.73,1026.53 C2138.59,1022.74 2133.33,1008.27 2130.09,1002.44 C2126.08,995.42 2118.58,982.40 2115.24,977.94 C2110.75,972.20 2089.49,950.97 2078.50,941.75 C2074.70,938.61 2062.87,929.86 2056.11,926.28 C2050.19,922.81 2041.34,917.75 2033.05,914.50 C2026.25,911.90 2010.02,908.26 2005.94,907.60 C1998.28,906.43 1981.03,903.68 1980.65,903.62 C1976.92,903.12 1956.13,902.37 1953.15,902.36 C1948.10,902.35 1933.61,903.71 1927.56,904.34 C1916.91,905.43 1912.03,906.19 1902.69,908.31 C1892.61,910.70 1883.68,913.79 1875.90,917.09 C1869.21,919.93 1860.70,924.52 1853.41,929.24 C1848.62,932.30 1833.04,944.64 1832.55,945.06 C1828.47,948.60 1822.62,955.36 1816.34,963.84 C1811.49,970.46 1800.19,986.06 1798.29,989.45 C1793.32,998.41 1789.11,1006.44 1786.75,1011.84 C1783.04,1020.51 1780.47,1028.89 1777.63,1041.08 C1775.38,1051.21 1773.62,1063.30 1773.30,1067.67 C1773.10,1070.46 1772.43,1089.12 1772.46,1092.76 C1772.62,1098.35 1773.35,1111.85 1773.59,1117.51 C1774.09,1127.99 1774.98,1136.50 1776.31,1142.26 C1777.03,1145.34 1784.41,1162.28 1787.88,1170.08 C1791.15,1177.18 1797.98,1188.56 1801.33,1194.13 C1805.92,1201.47 1812.94,1211.63 1818.80,1218.46 C1827.07,1227.83 1831.51,1232.46 1837.81,1237.67 C1841.74,1240.91 1853.17,1248.99 1858.52,1252.56 C1862.75,1255.30 1876.29,1262.52 1882.67,1265.49 C1888.72,1268.30 1900.15,1271.91 1909.73,1274.66 C1919.33,1277.30 1928.25,1279.05 1937.11,1280.25 C1943.27,1280.99 1956.04,1281.38 1960.01,1281.20 C1963.49,1281.03 1982.05,1279.44 1988.76,1278.27 C1996.41,1276.93 2001.52,1275.56 2013.17,1271.99 C2023.70,1268.77 2035.21,1264.88 2040.10,1262.72 C2044.79,1260.62 2053.91,1253.69 2059.99,1247.75 C2062.39,1245.34 2065.57,1241.97 2066.19,1240.37 C2064.37,1240.08 2059.20,1241.70 2055.44,1242.62 C2044.73,1245.19 2037.17,1246.68 2028.86,1247.99 C2014.23,1249.77 1983.58,1253.09 1967.15,1254.19 C1953.91,1254.85 1935.55,1253.52 1929.88,1253.07 C1930.69,1253.16 1948.01,1254.16 1954.35,1254.60 C1963.56,1254.98 1970.58,1254.36 1983.36,1251.80 C1985.75,1251.32 1987.24,1251.13 1989.81,1250.93 C1988.33,1251.19 1981.77,1250.35 1979.22,1249.59 C1974.00,1248.00 1960.52,1240.86 1954.34,1236.77 C1950.94,1234.52 1946.93,1231.51 1943.02,1228.27 C1941.39,1226.91 1939.24,1224.60 1939.07,1223.52 C1938.90,1222.20 1940.76,1219.85 1942.11,1219.34 C1944.53,1218.50 1950.18,1218.48 1952.67,1218.83 C1962.87,1220.35 1984.54,1228.15 1987.84,1229.88 C1984.96,1230.78 1979.87,1230.73 1975.99,1230.16 C1968.96,1229.09 1956.02,1225.80 1949.68,1223.71 C1943.44,1221.63 1931.05,1216.69 1928.70,1214.79 C1928.70,1214.79 1929.51,1213.63 1929.51,1213.63 C1932.51,1213.08 1943.51,1215.73 1951.61,1218.94 C1959.21,1222.03 1972.41,1229.42 1976.58,1232.62 C1976.76,1232.76 1980.75,1236.27 1980.96,1237.05 C1981.28,1238.35 1981.22,1239.59 1980.79,1240.78 C1980.22,1242.18 1974.95,1243.62 1971.47,1244.02 C1968.54,1244.30 1953.54,1242.65 1946.73,1241.17 C1940.98,1239.91 1924.50,1234.96 1919.62,1233.27 C1903.43,1227.36 1890.97,1220.94 1888.34,1218.66 C1888.34,1218.66 1888.37,1217.10 1888.37,1217.10 C1892.09,1217.34 1895.51,1218.41 1897.65,1219.84 C1901.20,1222.30 1909.10,1230.39 1915.21,1238.79 C1917.92,1242.51 1918.79,1245.63 1918.71,1247.13 C1916.88,1247.29 1915.24,1246.80 1913.64,1245.43 C1910.88,1243.07 1903.80,1232.90 1901.02,1227.44 C1898.21,1221.87 1895.14,1212.40 1894.52,1207.56 C1894.28,1205.61 1895.02,1204.14 1896.97,1202.27 C1899.49,1201.93 1904.86,1204.01 1907.07,1205.58 C1911.01,1208.45 1917.89,1217.74 1919.95,1222.63 C1920.92,1224.96 1922.30,1229.64 1922.68,1231.86 C1923.07,1234.40 1923.01,1240.44 1921.93,1243.05 C1921.34,1244.42 1919.55,1246.65 1918.46,1247.38 C1917.27,1248.12 1914.28,1248.82 1912.60,1248.72 C1909.58,1248.48 1904.33,1246.40 1902.48,1245.28 C1900.19,1243.86 1895.20,1239.51 1892.82,1236.90 C1888.51,1232.10 1882.70,1221.31 1880.58,1215.35 C1878.76,1210.15 1879.14,1205.72 1879.31,1204.24 C1880.43,1204.03 1882.65,1203.53 1883.34,1203.62 C1886.09,1204.02 1891.99,1207.78 1893.72,1209.16 C1897.92,1212.54 1904.10,1220.19 1906.44,1224.42 C1907.68,1226.71 1909.60,1232.83 1909.18,1233.90 C1909.04,1234.23 1908.57,1234.82 1907.74,1235.66 C1903.57,1235.47 1900.38,1234.66 1897.87,1233.06 C1894.25,1230.66 1888.30,1224.55 1885.80,1220.29 C1884.41,1217.92 1882.43,1213.47 1881.70,1211.00 C1880.93,1208.17 1880.80,1201.79 1881.71,1199.16 C1882.31,1197.59 1883.44,1196.44 1884.86,1195.97 C1887.31,1195.28 1892.48,1197.30 1895.01,1199.37 C1898.81,1202.58 1904.86,1210.79 1908.02,1217.29 C1910.81,1223.08 1913.53,1233.45 1913.77,1238.27 C1913.87,1240.99 1912.37,1247.54 1911.12,1248.74 C1909.86,1249.85 1906.81,1250.84 1905.26,1250.53 C1901.88,1249.79 1896.86,1247.23 1895.78,1246.40 C1886.82,1239.26 1881.90,1225.00 1881.49,1223.12 C1881.06,1221.12 1881.50,1219.10 1882.78,1216.41 C1885.79,1215.73 1890.45,1216.10 1893.94,1217.89 C1897.33,1219.67 1909.90,1230.39 1913.97,1235.32 C1914.91,1236.47 1919.42,1242.95 1920.04,1244.38 C1921.12,1246.89 1921.03,1249.01 1919.97,1250.93 C1915.91,1251.97 1912.65,1252.06 1908.46,1250.35 C1901.43,1247.35 1891.82,1236.07 1891.27,1234.84 C1890.32,1232.57 1890.52,1229.24 1891.79,1227.91 C1892.24,1227.47 1895.82,1226.77 1896.23,1226.78 C1898.92,1226.93 1903.99,1229.76 1906.09,1231.41 C1907.91,1232.87 1911.67,1236.49 1913.22,1238.26 C1914.92,1240.26 1918.23,1245.45 1919.25,1248.55 C1920.31,1251.89 1920.10,1258.25 1919.36,1259.83 C1918.51,1261.50 1916.16,1263.01 1914.42,1262.99 C1911.86,1262.89 1903.34,1255.66 1898.03,1249.93 C1890.25,1241.33 1885.40,1234.86 1884.51,1233.71 C1884.32,1233.80 1883.63,1235.42 1883.52,1235.54 C1882.69,1236.44 1880.91,1236.85 1879.69,1236.45 C1875.37,1234.89 1864.94,1226.23 1860.37,1221.52 C1855.40,1216.27 1845.63,1205.99 1839.53,1201.19 C1837.47,1199.58 1836.11,1198.70 1834.46,1197.85 C1836.24,1201.29 1845.72,1212.26 1849.63,1216.43 C1854.68,1221.60 1865.21,1231.94 1865.33,1233.27 C1862.51,1232.19 1859.58,1230.03 1855.32,1226.02 C1854.33,1225.09 1847.06,1217.96 1844.37,1215.59 C1833.10,1206.20 1815.92,1191.87 1810.00,1186.92 C1806.50,1183.98 1804.70,1181.96 1802.24,1178.31 C1797.22,1170.68 1790.59,1159.05 1788.69,1153.38 C1788.09,1151.56 1781.62,1127.99 1781.43,1127.24 C1779.77,1120.74 1778.44,1110.87 1778.03,1101.32 C1777.84,1093.64 1777.53,1078.77 1778.16,1074.97 C1779.69,1066.13 1781.73,1061.99 1781.84,1062.28 C1782.07,1063.52 1781.79,1076.64 1782.76,1083.69 C1783.42,1088.39 1787.33,1104.70 1789.32,1112.01 C1791.43,1119.17 1796.47,1134.48 1798.69,1139.95 C1801.18,1146.03 1809.65,1162.15 1810.77,1164.06 C1813.43,1168.52 1823.75,1181.11 1828.60,1185.95 C1842.71,1199.98 1887.22,1231.58 1890.19,1234.23 C1886.29,1230.79 1876.64,1217.94 1872.29,1212.16 C1860.56,1197.50 1848.67,1179.62 1841.38,1168.84 C1837.32,1162.62 1828.04,1145.95 1827.31,1144.37 C1826.49,1142.56 1818.48,1120.76 1817.95,1117.72 C1817.36,1114.11 1818.18,1110.70 1818.60,1110.36 C1819.33,1111.02 1824.41,1124.65 1826.86,1129.72 C1829.92,1135.98 1836.76,1147.42 1841.33,1153.85 C1845.13,1158.98 1852.99,1169.44 1857.27,1174.57 C1862.37,1180.55 1867.66,1185.77 1875.60,1193.05 C1891.25,1207.11 1901.56,1215.76 1903.13,1216.77 C1899.24,1211.08 1892.44,1200.96 1888.71,1194.61 C1874.76,1170.53 1870.39,1163.47 1858.04,1145.88 C1853.93,1139.95 1845.75,1127.88 1842.02,1121.97 C1837.90,1115.18 1830.34,1100.41 1829.19,1097.97 C1826.81,1092.91 1822.33,1079.46 1821.58,1073.90 C1820.96,1069.02 1822.11,1052.61 1822.53,1045.21 C1822.82,1036.07 1822.38,1032.09 1822.11,1030.61 C1820.12,1034.83 1816.34,1052.00 1815.69,1055.89 C1813.79,1067.36 1810.58,1136.53 1809.97,1140.27 C1809.23,1138.47 1799.59,1066.95 1799.18,1059.99 C1798.74,1052.40 1799.04,1041.60 1800.60,1034.94 C1802.59,1026.59 1806.47,1015.73 1809.53,1011.74 C1810.81,1010.08 1812.15,1008.69 1812.47,1008.58 C1811.94,1010.96 1805.56,1027.42 1804.19,1032.37 C1802.92,1037.06 1800.78,1051.44 1800.51,1051.47 C1799.67,1050.92 1801.79,1038.95 1804.70,1026.17 C1807.39,1015.13 1809.91,1007.13 1812.94,1002.34 C1814.53,999.84 1824.08,987.41 1828.20,983.64 C1830.90,981.18 1842.98,971.45 1847.38,968.49 C1850.70,966.28 1868.53,956.31 1872.69,954.40 C1889.28,946.85 1900.15,945.18 1900.95,945.29 C1900.57,946.87 1888.76,956.75 1882.86,962.09 C1878.16,966.56 1863.67,981.04 1862.27,982.53 C1858.23,986.85 1851.37,996.41 1845.32,1005.69 C1840.11,1013.88 1834.83,1024.15 1833.34,1029.17 C1831.84,1034.36 1831.25,1043.28 1831.24,1053.76 C1831.20,1063.25 1830.87,1067.73 1830.46,1070.85 C1832.20,1058.83 1836.17,1024.57 1836.86,1013.13 C1837.80,987.61 1837.74,984.09 1837.63,983.48 C1837.63,983.48 1808.78,1019.81 1808.78,1019.81 C1808.35,1017.99 1808.42,1016.96 1809.24,1015.01 C1812.08,1007.96 1817.86,993.75 1820.31,989.29 C1824.16,982.43 1833.71,970.14 1838.10,965.40 C1841.40,961.88 1854.11,953.99 1859.76,950.47 C1862.75,948.55 1874.36,941.12 1881.63,937.88 C1887.92,935.14 1902.85,930.27 1910.12,927.97 C1918.42,925.45 1929.13,923.26 1934.10,922.76 C1936.52,922.52 1962.22,920.66 1965.11,920.55 C1969.83,920.39 1982.47,921.19 1989.66,922.31 C1996.62,923.48 2028.05,933.84 2040.68,938.38 C2046.24,940.50 2061.40,947.60 2068.28,950.91 C2076.89,955.39 2084.41,960.31 2090.97,965.68 C2098.93,972.36 2102.68,976.32 2107.51,983.15 C2110.23,986.98 2118.62,1001.58 2120.97,1007.01 C2122.15,1009.74 2127.89,1024.66 2129.82,1031.55 C2131.96,1039.45 2135.81,1053.91 2136.56,1059.98 C2137.47,1068.13 2137.25,1077.43 2136.30,1086.29 C2135.41,1093.99 2133.13,1103.02 2129.89,1114.27 C2126.81,1124.85 2125.12,1129.71 2121.17,1139.33 C2118.58,1145.56 2116.03,1149.85 2115.84,1149.96 C2115.27,1150.26 2121.27,1132.79 2122.00,1126.28 C2122.50,1121.67 2123.10,1100.11 2123.08,1097.47 C2122.94,1086.20 2118.36,1048.39 2118.15,1047.22 C2116.38,1037.85 2113.46,1025.38 2111.23,1018.92 C2109.08,1012.76 2103.41,1001.05 2100.37,996.86 C2096.25,991.25 2082.28,977.74 2079.97,975.76 C2078.20,974.26 2060.54,963.17 2057.44,961.44 C2054.05,959.55 2039.65,953.30 2031.92,950.65 C2025.12,948.49 2009.13,943.61 2004.10,942.72 C1999.37,941.90 1981.91,940.13 1976.91,940.24 C1976.04,940.26 1955.11,941.26 1950.56,942.21 C1945.55,943.28 1935.04,946.48 1927.11,949.42 C1923.72,950.73 1905.42,960.94 1902.37,962.88 C1897.16,966.22 1886.50,975.20 1882.79,979.92 C1880.24,983.21 1861.53,1014.29 1854.89,1024.96 C1848.69,1035.35 1846.06,1049.30 1846.28,1050.68 C1846.77,1050.97 1856.11,1035.10 1860.08,1029.70 C1864.81,1023.47 1876.60,1008.82 1879.79,1005.37 C1885.13,999.65 1892.91,993.05 1900.84,987.44 C1907.84,982.57 1916.82,977.13 1922.18,974.57 C1926.15,972.70 1942.71,966.95 1949.09,965.62 C1952.20,964.99 1968.82,962.55 1974.10,962.67 C1978.57,962.80 1991.60,965.31 1997.53,967.36 C2005.83,970.28 2014.71,974.44 2022.93,979.24 C2029.36,982.98 2038.41,990.76 2043.95,995.59 C2048.38,999.52 2058.41,1011.00 2063.36,1016.69 C2065.69,1019.38 2090.93,1053.59 2093.12,1055.28 C2093.20,1052.54 2091.61,1047.11 2090.26,1043.49 C2086.82,1034.54 2080.76,1022.65 2075.94,1016.02 C2072.81,1011.75 2061.09,998.41 2057.28,995.24 C2053.13,991.81 2043.70,985.91 2036.86,982.58 C2014.73,972.31 2005.63,969.55 2005.47,969.31 C2009.07,968.97 2013.76,968.83 2016.86,969.33 C2022.11,970.20 2033.99,974.39 2039.87,977.37 C2044.85,979.94 2055.47,986.43 2060.37,990.35 C2065.32,994.35 2076.43,1005.32 2080.11,1010.54 C2083.86,1015.90 2092.81,1030.79 2094.27,1033.94 C2097.61,1041.29 2099.48,1049.75 2101.26,1060.45 C2101.84,1064.24 2102.94,1071.70 2103.46,1075.36 C2103.98,1079.19 2103.99,1085.07 2102.79,1089.11 C2102.01,1091.57 2099.68,1096.81 2097.46,1100.59 C2095.26,1104.29 2082.27,1118.27 2080.29,1121.36 C2076.25,1128.10 2069.44,1139.31 2065.44,1144.26 C2063.57,1146.57 2052.59,1158.48 2048.37,1161.67 C2046.84,1162.82 2042.03,1166.12 2041.18,1166.71" fill="none" stroke="rgb(255, 215, 164)" stroke-width="32.50" stroke-opacity="1.00" stroke-linejoin="round"/>
<path d="M2273.81,1432.00 C2274.24,1429.54 2275.87,1424.19 2277.83,1421.20 C2278.92,1419.57 2284.27,1415.17 2287.26,1413.33 C2290.77,1411.21 2296.36,1408.99 2300.24,1407.91 C2306.85,1406.09 2321.32,1403.57 2328.80,1403.12 C2335.82,1402.71 2383.19,1402.68 2391.78,1402.59 C2401.46,1402.32 2411.53,1401.64 2419.78,1400.62 C2435.29,1398.40 2456.20,1394.36 2464.53,1393.62 C2461.64,1396.24 2458.79,1398.38 2454.17,1400.25 C2448.70,1402.42 2436.80,1405.84 2426.89,1408.00 C2417.78,1409.79 2405.75,1411.41 2396.27,1412.09 C2381.16,1412.95 2355.25,1413.62 2334.75,1413.35 C2317.45,1412.98 2281.90,1412.12 2272.51,1411.47 C2266.15,1410.96 2255.19,1410.00 2249.11,1408.37 C2253.46,1405.79 2290.65,1391.34 2305.12,1385.82 C2310.91,1383.79 2326.93,1379.53 2331.13,1378.61 C2338.79,1376.95 2351.16,1375.55 2360.65,1375.19 C2369.03,1374.94 2380.71,1375.41 2387.79,1376.32 C2412.17,1379.83 2419.69,1381.82 2425.93,1384.13 C2424.07,1385.78 2419.66,1387.91 2414.93,1389.55 C2407.42,1392.04 2396.71,1394.17 2387.36,1395.16 C2381.00,1395.71 2368.61,1396.53 2357.34,1396.74 C2349.09,1396.69 2333.62,1396.49 2326.40,1396.34 C2312.41,1395.85 2310.80,1395.38 2309.91,1394.79 C2312.71,1392.32 2315.02,1390.54 2318.32,1389.17 C2323.10,1387.21 2336.20,1383.34 2342.87,1382.09 C2349.40,1380.89 2362.88,1379.80 2372.82,1379.31 C2383.17,1378.87 2390.04,1379.41 2399.89,1380.63 C2407.07,1381.63 2424.15,1386.09 2426.81,1386.99 C2428.99,1387.73 2434.63,1390.54 2437.71,1392.46 C2439.45,1393.59 2441.85,1396.37 2442.19,1397.95 C2442.48,1399.61 2441.20,1402.83 2439.80,1404.42 C2436.80,1407.68 2432.27,1410.86 2429.43,1411.78 C2423.54,1413.60 2410.12,1416.09 2403.14,1416.37 C2388.56,1416.78 2372.46,1415.95 2347.67,1413.70 C2331.01,1412.09 2293.34,1408.29 2284.88,1407.14 C2278.31,1406.19 2260.01,1403.56 2256.39,1403.17 C2248.07,1402.29 2233.56,1403.28 2229.13,1403.40 C2217.28,1403.71 2184.69,1401.47 2171.59,1400.33 C2154.10,1399.29 2122.04,1398.19 2104.81,1397.71 C2088.34,1397.51 2061.11,1397.44 2044.39,1398.19 C2025.13,1399.47 1998.99,1402.47 1986.62,1402.62 C1978.02,1402.58 1957.39,1402.09 1953.49,1401.73 C1950.82,1401.48 1945.11,1400.25 1941.81,1399.31 C1939.14,1398.52 1935.11,1395.95 1932.66,1393.74 C1930.56,1391.81 1928.28,1386.97 1928.22,1385.73 C1928.21,1384.40 1929.23,1382.29 1930.51,1380.93 C1933.37,1378.01 1938.45,1374.16 1941.88,1372.61 C1943.11,1372.06 1949.54,1369.81 1951.89,1369.14 C1955.61,1368.12 1976.19,1366.69 1981.51,1366.74 C1987.02,1366.82 2002.22,1368.90 2009.69,1370.00 C2019.29,1371.59 2028.21,1373.33 2036.84,1375.41 C2048.77,1378.49 2054.93,1380.77 2058.26,1382.50 C2055.50,1384.27 2052.71,1385.54 2048.79,1385.68 C2043.68,1385.80 2027.60,1384.21 2021.93,1383.09 C2014.77,1381.67 1973.08,1371.12 1956.54,1366.82 C1910.38,1354.12 1897.87,1348.54 1895.89,1347.62 C1900.62,1346.43 1912.76,1346.69 1923.35,1348.19 C1931.15,1349.47 1949.03,1352.56 1953.12,1353.49 C1958.44,1354.73 1977.21,1361.17 1979.87,1362.26 C1982.97,1363.54 1988.18,1366.54 1990.17,1367.91 C1993.18,1370.01 1999.25,1375.66 2000.02,1377.70 C2000.76,1379.76 1999.09,1386.60 1997.82,1388.75 C1996.42,1391.04 1990.34,1395.22 1987.38,1396.39 C1984.02,1397.66 1978.78,1398.93 1974.92,1399.40 C1968.00,1400.21 1954.39,1399.17 1947.67,1397.83 C1941.42,1396.57 1927.74,1392.37 1920.88,1389.21 C1915.18,1386.57 1902.34,1379.02 1897.05,1375.45 C1891.14,1371.32 1880.83,1362.49 1877.63,1357.87 C1876.13,1355.65 1874.14,1349.22 1874.83,1347.22 C1875.56,1345.23 1881.62,1340.15 1884.58,1338.83 C1887.29,1337.66 1894.47,1336.27 1898.18,1336.09 C1906.21,1335.78 1919.20,1337.32 1928.76,1338.80 C1937.68,1340.27 1945.36,1342.08 1953.86,1344.47 C1962.59,1347.03 1971.28,1350.46 1982.03,1355.52 C1986.78,1357.77 1989.24,1359.14 1992.05,1362.26 C1992.72,1363.02 1993.39,1363.79 1994.06,1364.55 C1993.73,1366.35 1992.83,1369.19 1991.97,1370.52 C1990.62,1372.57 1984.14,1375.70 1980.49,1376.39 C1973.85,1377.56 1959.09,1377.72 1949.98,1376.99 C1943.15,1376.44 1931.11,1374.50 1921.57,1372.50 C1916.44,1371.34 1898.69,1366.71 1891.01,1364.49 C1883.61,1362.16 1867.23,1356.46 1863.13,1354.79 C1856.81,1352.18 1844.54,1345.78 1838.59,1342.18 C1836.92,1341.22 1835.38,1341.37 1832.74,1342.68 C1825.13,1346.54 1812.62,1350.98 1806.08,1351.94 C1801.26,1352.62 1785.79,1353.75 1778.14,1353.93 C1771.12,1353.98 1753.80,1353.96 1747.27,1353.67 C1735.47,1353.04 1714.07,1349.63 1711.96,1348.81 C1713.74,1347.14 1720.41,1344.86 1722.66,1344.24 C1727.94,1342.77 1740.35,1340.72 1749.36,1340.21 C1756.82,1339.90 1772.84,1339.36 1780.50,1339.27 C1787.93,1339.30 1806.06,1340.49 1807.32,1341.24 C1807.70,1341.47 1808.48,1342.11 1809.66,1343.17 C1807.71,1345.82 1803.55,1349.52 1800.19,1351.24 C1785.45,1358.62 1771.84,1360.58 1767.59,1360.76 C1771.61,1357.79 1774.39,1356.15 1777.53,1355.30 C1783.94,1353.65 1796.13,1352.10 1807.92,1351.17 C1824.33,1350.21 1855.05,1348.57 1872.55,1348.00 C1885.52,1348.08 1916.96,1349.11 1932.86,1350.07 C1948.55,1351.29 1978.47,1353.96 1992.09,1355.65 C1998.89,1356.61 2013.55,1359.15 2021.48,1360.76 C2029.08,1362.45 2044.08,1365.86 2050.19,1367.89 C2054.60,1369.39 2058.98,1371.17 2060.31,1373.18 C2060.45,1373.40 2060.72,1373.88 2061.13,1374.61 C2058.38,1377.71 2055.11,1381.17 2051.71,1383.07 C2046.39,1385.97 2030.14,1391.30 2025.66,1392.51 C2021.86,1393.52 2005.97,1396.89 1997.87,1398.31 C1976.57,1401.59 1967.50,1401.20 1965.54,1401.03 C1970.05,1399.00 1974.06,1397.55 1977.67,1396.99 C1985.71,1395.81 2018.38,1395.03 2033.01,1395.06 C2048.64,1395.48 2080.91,1396.66 2097.55,1397.42 C2120.58,1398.99 2188.56,1405.91 2217.86,1409.11 C2225.49,1409.77 2240.45,1410.95 2247.77,1411.48 C2256.47,1412.19 2265.17,1413.26 2276.73,1415.63 C2291.35,1418.86 2321.66,1425.77 2337.02,1429.69 C2342.42,1431.20 2378.17,1441.60 2393.30,1445.61 C2407.62,1449.04 2435.53,1453.51 2450.76,1455.06 C2466.13,1456.35 2497.28,1458.59 2513.06,1459.55 C2528.03,1460.01 2559.02,1459.32 2574.21,1459.27 C2597.77,1459.65 2653.05,1462.73 2669.35,1463.79 C2655.24,1463.83 2624.12,1461.59 2607.74,1460.27 C2591.80,1458.77 2561.36,1455.91 2546.86,1454.55 C2532.24,1453.35 2498.59,1452.72 2486.93,1453.02 C2474.95,1453.57 2421.63,1458.48 2420.03,1458.49 C2423.69,1456.39 2436.82,1452.92 2445.42,1451.58 C2450.64,1450.77 2468.70,1448.96 2476.62,1448.39 C2492.65,1447.56 2523.10,1447.60 2537.57,1448.03 C2570.06,1449.80 2630.09,1454.79 2657.34,1455.66 C2678.47,1455.91 2752.21,1455.17 2784.04,1455.00 C2814.34,1454.66 2850.02,1454.39 2853.39,1454.98 C2843.06,1459.22 2834.72,1462.03 2824.33,1464.70 C2815.39,1466.86 2807.81,1468.37 2797.93,1469.82 C2777.60,1472.47 2751.31,1474.51 2737.23,1475.24 C2723.10,1475.72 2693.50,1476.11 2680.90,1476.18 C2647.77,1475.81 2583.98,1474.83 2553.34,1474.23 C2535.38,1473.93 2510.52,1474.76 2495.10,1475.34 C2479.03,1476.02 2454.54,1477.10 2446.11,1477.52 C2455.03,1475.58 2466.60,1474.23 2473.04,1473.50 C2491.23,1471.93 2519.93,1470.11 2535.52,1469.20 C2568.65,1467.87 2635.45,1466.38 2658.98,1466.72 C2691.77,1467.43 2756.31,1468.80 2788.07,1469.45 C2808.76,1469.58 2835.34,1468.55 2850.25,1467.86 C2865.78,1466.99 2888.79,1465.19 2909.75,1462.61 C2941.40,1458.26 2979.16,1452.92 2985.68,1451.64 C2988.00,1451.18 2992.17,1450.09 2993.49,1448.68 C2987.39,1447.67 2976.39,1448.11 2965.47,1449.49 C2950.16,1451.58 2914.46,1456.26 2902.19,1457.48 C2885.74,1458.79 2855.15,1460.18 2841.51,1460.46 C2812.22,1460.44 2747.71,1459.14 2715.48,1458.41 C2682.97,1458.14 2620.20,1458.89 2588.41,1459.44 C2553.08,1459.57 2489.15,1459.62 2460.54,1459.55 C2453.53,1459.55 2442.91,1458.44 2437.54,1457.87 C2440.69,1455.26 2443.33,1453.66 2448.47,1451.95 C2458.84,1448.58 2490.40,1440.80 2506.59,1437.32 C2514.98,1435.62 2530.44,1432.60 2537.52,1431.27 C2551.70,1429.01 2588.44,1425.22 2595.84,1424.61 C2609.57,1423.86 2638.41,1422.52 2653.52,1421.92 C2672.93,1421.55 2707.35,1421.12 2722.34,1421.05 C2756.27,1421.20 2822.08,1421.34 2853.97,1421.32 C2881.53,1420.53 2941.82,1418.54 2974.55,1417.36 C2982.15,1417.18 2995.38,1416.91 3000.99,1416.81 C3010.25,1416.82 3016.10,1417.36 3023.10,1418.34 C3016.88,1421.51 3009.45,1423.77 2999.30,1426.20 C2979.66,1430.48 2952.47,1435.33 2937.72,1437.59 C2924.51,1439.41 2893.49,1442.65 2877.50,1444.10 C2860.70,1445.36 2830.31,1447.50 2816.73,1448.39 C2787.22,1449.56 2724.19,1451.79 2690.68,1452.84 C2657.39,1453.98 2593.62,1456.42 2563.13,1457.73 C2530.21,1459.52 2459.30,1463.18 2438.80,1463.39 C2415.97,1463.13 2404.64,1461.89 2394.75,1460.12 C2397.86,1457.50 2400.69,1455.75 2405.19,1454.42 C2412.30,1452.38 2449.33,1445.92 2462.01,1444.38 C2476.98,1442.84 2501.10,1441.44 2520.51,1441.31 C2536.91,1441.46 2568.97,1442.00 2585.04,1442.68 C2612.92,1444.64 2673.19,1449.52 2705.58,1452.45 C2740.55,1455.76 2807.74,1462.38 2839.95,1465.69 C2866.18,1468.61 2924.98,1474.62 2957.54,1477.72 C2972.61,1479.08 3002.66,1481.91 3017.65,1483.38 C3034.36,1485.37 3065.90,1489.21 3080.73,1491.06 C3085.90,1491.75 3086.72,1492.15 3087.67,1493.10 C3080.47,1495.26 3070.36,1497.06 3061.80,1497.96 C3043.87,1499.56 3023.09,1500.42 3003.15,1500.46 C2986.69,1500.32 2956.74,1499.94 2943.25,1499.69 C2925.25,1499.18 2850.01,1494.78 2818.11,1492.80 C2785.44,1490.92 2720.24,1487.61 2687.70,1486.20 C2657.95,1485.18 2598.06,1483.00 2567.92,1481.83 C2535.38,1480.59 2470.23,1478.33 2437.62,1477.30 C2420.96,1476.79 2389.39,1475.73 2374.47,1475.17 C2330.07,1472.96 2294.59,1470.09 2285.42,1469.34 C2301.43,1468.69 2330.76,1467.62 2348.23,1467.85 C2360.58,1468.22 2385.35,1469.34 2402.03,1470.85 C2433.12,1473.82 2499.39,1480.04 2534.56,1483.28 C2570.24,1486.21 2633.64,1491.08 2661.36,1493.03 C2672.12,1493.49 2698.58,1494.02 2706.86,1494.22 C2688.64,1496.74 2661.58,1499.58 2646.13,1500.43 C2630.29,1501.01 2601.75,1501.06 2586.34,1500.25 C2570.20,1499.20 2545.15,1497.03 2526.28,1494.49 C2495.59,1490.09 2434.84,1481.87 2404.79,1478.04 C2374.32,1474.00 2312.50,1465.63 2281.15,1461.32 C2266.10,1458.84 2242.24,1455.02 2236.28,1454.58 C2233.26,1454.38 2229.36,1454.48 2227.92,1454.56" fill="none" stroke="rgb(255, 215, 164)" stroke-width="80.00" stroke-opacity="1.00" stroke-linejoin="round"/>
<path d="M1835.20,1202.09 C1833.86,1199.68 1830.76,1194.16 1829.30,1192.10 C1828.20,1190.56 1824.22,1186.60 1822.11,1184.65 C1817.18,1179.48 1802.99,1158.82 1800.84,1155.69 C1798.85,1152.81 1795.49,1147.88 1794.19,1147.31 C1794.36,1150.88 1796.35,1156.55 1798.04,1160.47 C1803.00,1171.70 1811.40,1186.96 1812.18,1188.42 C1812.18,1188.42 1808.51,1179.99 1808.51,1179.99 C1812.28,1187.37 1817.09,1193.83 1822.79,1200.43 C1828.13,1206.47 1836.45,1212.70 1841.82,1216.09 C1847.78,1219.85 1856.81,1226.92 1861.11,1231.07 C1857.95,1229.33 1845.64,1217.42 1839.59,1211.48 C1835.47,1207.35 1826.07,1197.13 1821.33,1192.30 C1814.49,1184.50 1809.70,1179.50 1804.75,1172.53 C1799.06,1164.31 1792.66,1154.48 1790.28,1149.20 C1786.04,1139.69 1783.26,1130.18 1782.14,1121.93 C1781.37,1116.21 1781.13,1105.18 1781.54,1094.29 C1781.81,1088.98 1786.75,1047.58 1788.94,1039.27 C1790.67,1032.79 1794.92,1021.21 1797.91,1014.79 C1800.89,1008.39 1809.01,994.24 1813.85,988.11 C1816.68,984.54 1827.49,972.15 1832.13,968.22 C1833.18,967.33 1849.80,954.09 1854.74,949.78 C1860.15,945.19 1873.13,937.40 1879.34,934.60 C1884.62,932.25 1898.38,927.74 1909.01,924.75 C1918.26,922.21 1929.18,920.62 1935.79,920.10 C1940.40,919.75 1959.26,920.13 1967.60,920.34 C1977.04,920.70 1988.45,921.78 1995.66,922.62 C2005.74,923.98 2017.25,926.31 2022.55,928.38 C2027.73,930.42 2041.64,937.79 2049.15,941.63 C2057.92,946.03 2066.22,951.88 2072.20,956.12 C2076.10,958.95 2080.30,962.22 2082.13,963.90 C2086.70,968.15 2091.77,977.28 2096.39,984.65 C2099.19,989.25 2106.52,1001.99 2109.95,1008.08 C2114.87,1017.26 2119.52,1027.35 2122.08,1034.67 C2124.44,1041.45 2127.61,1053.49 2129.90,1063.56 C2131.42,1070.68 2132.53,1082.33 2132.60,1092.51 C2132.63,1100.46 2132.56,1115.58 2131.70,1122.99 C2131.06,1128.33 2128.31,1140.98 2125.80,1150.84 C2124.69,1155.04 2123.35,1158.52 2121.44,1162.21 C2118.45,1167.81 2111.54,1177.12 2107.22,1181.89 C2103.04,1186.49 2090.49,1197.46 2084.42,1201.56 C2076.75,1206.71 2066.00,1212.56 2057.07,1216.16 C2050.76,1218.52 2037.52,1223.31 2030.59,1225.75 C2023.50,1228.15 2009.06,1231.91 2001.48,1233.20 C1992.41,1234.73 1982.01,1235.82 1972.98,1235.76 C1966.31,1235.67 1952.75,1235.34 1945.86,1235.10 C1938.72,1234.95 1925.34,1232.55 1917.43,1230.51 C1896.00,1224.52 1874.72,1218.37 1867.13,1215.39 C1859.15,1212.13 1852.40,1208.16 1845.24,1202.30 C1841.98,1199.61 1837.13,1194.80 1835.04,1192.50 C1832.48,1189.64 1828.21,1181.78 1825.79,1174.39 C1824.63,1170.80 1821.67,1151.00 1821.58,1146.18 C1821.64,1138.87 1821.62,1122.45 1821.84,1118.82 C1822.26,1112.24 1825.62,1094.87 1825.79,1093.78 C1826.24,1090.81 1827.65,1073.77 1829.50,1067.25 C1830.97,1062.19 1836.66,1048.05 1839.06,1043.42 C1842.25,1037.30 1850.71,1025.54 1854.63,1020.83 C1858.99,1015.62 1866.25,1008.70 1873.41,1003.29 C1879.94,998.32 1892.41,985.65 1894.03,984.38 C1898.35,981.04 1902.14,978.63 1903.77,978.57 C1904.32,979.69 1902.29,982.44 1897.91,987.35 C1893.65,991.90 1884.99,1001.41 1881.99,1006.32 C1879.25,1010.82 1875.20,1021.12 1873.61,1027.31 C1871.30,1036.52 1869.18,1046.63 1867.90,1054.87 C1867.11,1060.54 1865.03,1080.80 1864.94,1084.41 C1864.80,1090.09 1865.64,1099.52 1867.41,1110.41 C1869.20,1120.57 1870.90,1128.16 1873.63,1136.26 C1875.96,1142.82 1881.22,1157.32 1883.97,1164.46 C1887.53,1173.36 1894.80,1188.57 1896.13,1191.77 C1897.54,1195.19 1897.99,1197.31 1898.39,1199.90 C1896.51,1198.69 1895.17,1197.71 1894.53,1196.79 C1892.35,1193.67 1884.49,1173.04 1883.48,1168.92 C1880.80,1157.72 1878.69,1130.19 1878.58,1113.66 C1878.56,1100.31 1882.15,1077.84 1886.89,1053.26 C1889.55,1036.94 1894.08,1009.80 1895.46,1006.02 C1896.76,1002.52 1905.38,986.12 1909.59,980.36 C1913.24,975.40 1921.55,965.87 1924.86,962.90 C1927.62,960.48 1930.79,959.12 1932.56,958.83 C1934.38,959.70 1935.55,963.84 1936.05,968.99 C1936.36,973.38 1935.64,990.53 1935.16,995.18 C1934.28,1003.77 1927.22,1044.74 1925.95,1054.60 C1925.02,1062.80 1924.41,1078.43 1924.46,1082.02 C1924.54,1087.16 1927.50,1127.66 1928.72,1142.74 C1930.06,1161.65 1930.84,1183.30 1931.49,1186.24 C1931.80,1187.63 1936.32,1206.38 1936.49,1211.28 C1936.26,1197.99 1936.65,1164.89 1937.02,1149.37 C1937.51,1139.13 1939.19,1125.53 1940.27,1118.38 C1944.33,1093.13 1945.51,1075.81 1947.33,1056.31 C1948.00,1048.81 1949.19,1033.75 1949.55,1026.38 C1949.90,1016.29 1950.65,1008.74 1952.67,998.85 C1955.40,984.53 1959.74,960.77 1960.30,953.25 C1961.10,956.45 1967.61,992.14 1970.40,1010.22 C1972.57,1026.45 1976.38,1057.39 1978.03,1072.09 C1978.50,1077.02 1978.89,1091.06 1979.05,1097.74 C1979.13,1107.54 1976.37,1147.42 1974.82,1158.91 C1973.38,1167.95 1970.87,1180.02 1968.94,1186.80 C1965.81,1197.28 1963.56,1203.81 1962.51,1206.35 C1964.66,1202.16 1971.87,1185.17 1974.25,1178.26 C1977.94,1166.98 1989.44,1128.80 1990.50,1124.73 C1992.08,1118.55 1994.25,1106.18 1995.22,1096.18 C1996.47,1080.16 1998.41,1044.81 1998.14,1033.62 C1997.92,1027.85 1996.46,1010.56 1995.55,1002.44 C1993.52,986.05 1989.29,969.36 1988.59,966.68 C1989.86,967.28 1992.93,973.07 1994.34,976.30 C1997.58,983.70 2004.13,998.82 2007.44,1006.54 C2011.71,1016.90 2014.40,1025.64 2016.19,1031.54 C2019.33,1042.46 2022.06,1054.52 2023.30,1062.17 C2024.73,1071.58 2026.11,1084.38 2025.95,1092.25 C2025.72,1099.57 2024.83,1116.99 2024.40,1120.74 C2023.98,1124.26 2021.55,1138.55 2019.15,1147.46 C2016.76,1156.05 2013.42,1164.51 2008.80,1174.72 C2005.78,1181.44 2002.31,1189.16 2001.86,1190.16 C2005.86,1184.83 2013.54,1172.07 2015.83,1166.96 C2019.58,1158.55 2033.20,1117.22 2034.48,1111.57 C2035.36,1107.64 2038.40,1088.45 2038.93,1081.93 C2039.47,1075.12 2039.26,1055.67 2039.05,1053.08 C2038.79,1049.79 2036.19,1029.74 2035.04,1022.48 C2033.94,1016.19 2032.05,1006.58 2029.22,995.74 C2023.45,974.23 2021.35,970.39 2020.78,969.44 C2021.13,973.22 2023.37,978.79 2025.19,982.47 C2027.63,987.40 2046.38,1020.83 2052.71,1033.90 C2056.09,1041.19 2061.71,1056.63 2062.82,1060.23 C2064.84,1066.84 2067.35,1079.57 2067.66,1087.04 C2067.89,1093.00 2067.01,1104.40 2065.59,1112.01 C2064.06,1120.04 2060.04,1131.60 2056.34,1139.94 C2049.61,1155.05 2035.86,1176.29 2032.99,1179.70 C2040.46,1170.80 2047.32,1162.12 2052.83,1153.90 C2058.22,1145.71 2063.65,1135.59 2065.98,1130.68 C2067.44,1127.58 2070.31,1119.87 2071.16,1116.78 C2072.56,1111.63 2072.60,1100.83 2071.61,1092.51 C2070.61,1084.65 2062.12,1051.30 2060.58,1046.14 C2063.50,1050.61 2069.00,1068.04 2070.72,1074.52 C2072.92,1082.97 2074.62,1095.00 2075.14,1102.83 C2075.44,1107.48 2075.74,1128.90 2075.44,1132.76 C2075.10,1136.93 2071.64,1151.98 2068.60,1158.38 C2064.89,1166.04 2059.04,1175.21 2054.05,1181.36 C2051.32,1184.70 2047.59,1188.52 2044.74,1190.91 C2042.41,1192.83 2038.76,1195.12 2035.65,1196.65 C2032.97,1197.94 2028.64,1199.48 2024.66,1199.96 C2027.42,1196.80 2030.45,1195.00 2036.32,1192.22 C2048.09,1186.72 2057.54,1181.55 2060.46,1179.94 C2067.50,1176.22 2081.06,1170.10 2084.85,1167.76 C2088.95,1165.19 2091.85,1162.62 2092.80,1160.54 C2094.18,1157.60 2096.58,1150.41 2096.88,1149.51 C2098.14,1145.78 2101.49,1140.31 2104.11,1138.10 C2105.31,1137.11 2106.11,1136.71 2106.58,1136.74 C2107.55,1138.41 2107.30,1142.17 2106.43,1145.91 C2103.56,1157.58 2101.08,1165.36 2098.15,1171.55 C2096.60,1174.79 2085.59,1188.85 2080.71,1193.65 C2078.13,1196.18 2071.10,1202.25 2069.97,1203.11 C2065.47,1206.50 2051.09,1212.17 2048.12,1212.70 C2045.12,1213.21 2022.32,1215.34 2017.71,1216.18 C2014.56,1216.76 1997.41,1220.79 1991.62,1221.78 C1984.54,1222.99 1971.28,1224.43 1967.20,1223.89 C1962.70,1223.29 1940.86,1222.36 1936.98,1222.09 C1930.84,1221.59 1916.64,1221.02 1910.13,1219.76 C1903.67,1218.34 1888.80,1216.51 1885.18,1215.74 C1881.13,1214.85 1871.72,1211.74 1870.03,1211.12 C1867.36,1210.10 1863.26,1205.51 1861.21,1203.17 C1857.64,1199.04 1855.75,1196.46 1855.35,1194.48 C1854.60,1190.40 1854.42,1185.85 1854.79,1180.94 C1855.35,1173.82 1857.55,1160.87 1859.27,1155.99 C1860.40,1152.85 1862.67,1148.72 1864.90,1145.71 C1867.65,1142.05 1877.38,1134.54 1882.89,1131.70 C1885.58,1130.33 1891.24,1128.16 1894.07,1127.42 C1897.13,1126.64 1903.36,1125.97 1906.99,1126.12 C1910.68,1126.30 1918.00,1127.51 1921.28,1128.52 C1926.78,1130.26 1938.91,1136.81 1943.50,1140.69 C1945.98,1142.80 1949.69,1147.07 1950.62,1149.01 C1951.53,1150.99 1951.73,1155.20 1951.04,1157.81 C1950.31,1160.46 1947.63,1165.58 1945.81,1167.73 C1944.06,1169.74 1939.63,1173.25 1937.25,1174.60 C1934.81,1175.96 1929.82,1177.69 1927.09,1178.07 C1924.89,1178.36 1918.47,1178.21 1915.89,1177.05 C1914.36,1176.34 1911.96,1173.66 1910.90,1171.78 C1910.01,1170.09 1909.33,1164.70 1909.73,1161.62 C1910.21,1158.29 1912.55,1152.52 1914.68,1149.53 C1917.94,1145.06 1928.17,1136.16 1933.64,1132.77 C1936.19,1131.20 1942.72,1127.74 1945.78,1126.41 C1949.60,1124.77 1955.87,1122.86 1959.19,1122.53 C1962.38,1122.24 1968.53,1123.05 1971.03,1124.02 C1973.61,1125.08 1977.93,1128.63 1979.76,1131.14 C1981.53,1133.66 1983.44,1138.78 1983.56,1141.41 C1983.64,1143.94 1982.28,1149.66 1980.91,1152.42 C1979.49,1155.20 1975.57,1160.04 1973.05,1162.43 C1970.87,1164.47 1964.35,1169.35 1963.68,1169.78 C1960.13,1172.02 1953.95,1174.46 1950.75,1175.10 C1947.93,1175.64 1942.30,1175.09 1940.11,1174.15 C1937.88,1173.16 1934.31,1169.79 1932.87,1167.40 C1931.43,1164.92 1929.65,1159.16 1929.17,1155.01 C1928.56,1149.33 1929.84,1135.47 1931.84,1129.17 C1932.88,1125.95 1935.89,1119.37 1937.46,1116.67 C1939.09,1113.89 1943.52,1107.77 1946.05,1105.02 C1950.66,1100.06 1962.15,1091.81 1968.24,1088.85 C1971.57,1087.26 1977.85,1085.38 1980.11,1085.12 C1984.10,1084.69 1991.44,1085.57 1994.73,1086.78 C1997.86,1087.97 2003.11,1091.51 2005.79,1093.90 C2007.95,1095.86 2012.18,1100.83 2013.31,1102.60 C2015.57,1106.21 2017.82,1112.84 2018.17,1116.61 C2018.46,1120.22 2017.58,1126.59 2016.55,1129.89 C2015.62,1132.76 2012.30,1139.42 2010.48,1142.32 C2008.66,1145.19 2003.94,1151.27 2001.61,1153.53 C1999.16,1155.89 1994.44,1159.33 1991.83,1160.66 C1989.21,1161.97 1982.66,1163.79 1980.50,1164.15 C1978.17,1164.52 1972.21,1164.42 1969.48,1163.50 C1965.91,1162.25 1961.57,1158.46 1959.79,1155.68 C1958.17,1153.08 1956.17,1147.46 1955.63,1145.06 C1954.24,1138.84 1953.45,1123.34 1954.15,1116.41 C1954.87,1109.61 1958.92,1095.57 1962.07,1089.52 C1965.21,1083.57 1973.89,1072.85 1978.48,1068.53 C1981.15,1066.05 1985.68,1062.55 1988.70,1060.81 C1991.49,1059.22 1997.36,1057.06 1999.54,1056.61 C2003.86,1055.76 2010.81,1056.12 2014.92,1057.55 C2016.97,1058.28 2022.95,1061.66 2025.44,1063.62 C2028.24,1065.86 2031.95,1069.79 2033.81,1072.52 C2035.46,1074.98 2038.01,1080.66 2038.82,1083.36 C2039.68,1086.26 2040.69,1092.69 2040.69,1096.42 C2040.66,1103.23 2037.67,1117.35 2035.57,1123.03 C2032.55,1131.05 2027.34,1139.93 2024.03,1143.88 C2020.62,1147.92 2013.05,1154.07 2009.06,1155.98 C2004.93,1157.93 1995.79,1159.57 1991.13,1159.29 C1988.59,1159.11 1982.74,1157.75 1979.79,1156.05 C1976.75,1154.25 1972.89,1150.30 1970.66,1147.30 C1968.91,1144.90 1966.24,1139.55 1965.19,1136.66 C1964.16,1133.78 1962.51,1127.04 1962.01,1123.29 C1961.16,1116.65 1962.12,1097.91 1963.04,1093.00 C1964.51,1085.28 1968.47,1073.08 1972.67,1064.13 C1974.75,1059.79 1978.12,1053.76 1980.37,1050.57 C1982.48,1047.61 1987.16,1042.40 1988.95,1040.98 C1990.15,1040.05 1994.37,1037.21 1995.51,1036.68 C1998.48,1035.31 2004.46,1035.11 2006.97,1035.53 C2009.30,1035.95 2012.96,1037.17 2016.05,1038.47 C2018.28,1039.44 2022.49,1042.24 2025.50,1044.71 C2028.27,1047.00 2032.91,1052.20 2034.97,1055.20 C2039.68,1062.13 2044.45,1073.13 2046.05,1080.08 C2047.71,1087.39 2048.91,1102.05 2048.48,1109.51 C2048.11,1115.56 2044.21,1129.64 2041.54,1134.75 C2039.63,1138.37 2036.17,1143.62 2034.36,1145.48 C2031.95,1147.91 2028.37,1150.85 2025.86,1152.33 C2023.49,1153.70 2018.24,1155.89 2015.65,1156.60 C2013.13,1157.27 2008.30,1157.82 2006.06,1157.69 C2002.02,1157.42 1993.19,1154.05 1989.20,1151.49 C1985.28,1148.95 1978.58,1142.42 1973.81,1135.58 C1970.07,1130.13 1963.94,1116.98 1962.46,1111.00 C1961.24,1105.85 1960.43,1100.98 1960.36,1097.65 C1960.27,1090.29 1962.45,1077.78 1964.16,1071.91 C1966.40,1064.52 1971.32,1053.24 1974.95,1048.11 C1978.26,1043.48 1985.68,1036.33 1988.78,1034.77 C1992.70,1032.89 1999.10,1032.54 2001.94,1033.17 C2006.43,1034.26 2013.92,1038.28 2016.83,1041.04 C2018.30,1042.46 2022.76,1048.30 2024.12,1050.63 C2025.73,1053.42 2028.68,1060.55 2029.52,1063.68 C2031.22,1070.07 2032.14,1082.84 2031.91,1090.60 C2031.69,1097.51 2029.68,1110.46 2027.81,1116.84 C2025.93,1123.14 2019.50,1136.20 2015.70,1141.54 C2014.03,1143.86 2009.69,1148.70 2007.45,1150.59 C2005.09,1152.55 1999.94,1155.77 1997.06,1157.07 C1994.20,1158.34 1988.31,1160.11 1985.53,1160.53 C1982.77,1160.92 1977.48,1160.81 1974.94,1160.30 C1972.52,1159.78 1966.99,1157.53 1965.24,1156.51 C1960.61,1153.77 1950.02,1144.00 1945.42,1137.77 C1941.32,1132.16 1935.64,1119.89 1933.90,1113.16 C1932.25,1106.64 1931.13,1092.30 1932.12,1085.77 C1932.68,1082.19 1934.55,1075.64 1936.06,1071.78 C1937.42,1068.38 1940.04,1063.50 1942.78,1059.01 C1944.71,1055.93 1947.60,1052.52 1949.83,1050.58 C1951.68,1049.01 1955.09,1046.96 1957.37,1045.91 C1959.94,1044.79 1966.55,1043.55 1970.94,1044.25 C1974.84,1044.93 1984.90,1050.57 1988.36,1053.79 C1990.47,1055.79 1995.57,1061.74 1997.28,1064.78 C1998.84,1067.59 2001.45,1074.09 2002.52,1077.79 C2004.43,1084.47 2005.53,1099.62 2004.75,1107.67 C2004.17,1113.29 2000.77,1126.48 1999.93,1127.58 C1999.66,1127.92 1985.33,1137.21 1984.16,1137.97" fill="none" stroke="rgb(254, 254, 254)" stroke-width="80.00" stroke-opacity="1.00" stroke-linejoin="round"/>
</g>
</svg>
